<svg id="Capa_1" data-name="Capa 1" xmlns="http://www.w3.org/2000/svg" viewBox="0 0 277.75 257.86"><defs><style>.cls-1{fill:#11899b;}.cls-2{fill:#4d2e85;}.cls-3{fill:#eac042;}.cls-4{fill:#c06517;}.cls-5{fill:#1b1a1a;}.cls-6{fill:#c44b75;}.cls-7{fill:#3a2983;}.cls-8{fill:#094f57;}.cls-9{fill:#fff;}.cls-10{fill:#040006;}</style></defs><title>logo</title><polygon class="cls-1" points="0 166.93 70.44 45 138.88 0 64.44 257.86 0 166.93"/><polygon class="cls-2" points="64.44 257.86 138.88 0 207.31 48 277.75 166.93 213.31 257.86 64.44 257.86"/><polygon class="cls-3" points="64.44 257.86 138.88 0 177.54 133.95 213.31 257.86 64.44 257.86"/><polygon class="cls-4" points="213.31 257.86 64.44 257.86 177.54 133.95 213.31 257.86"/><path class="cls-5" d="M423.22,332.5a54.71,54.71,0,0,1,16.95,31.07,35.25,35.25,0,0,0-29.34,58.58,55.11,55.11,0,0,1-62.22-8.63Z" transform="translate(-257.01 -176.54)"/><path class="cls-6" d="M440.17,363.57a55.1,55.1,0,0,1-29.34,58.58,35.25,35.25,0,0,1,29.34-58.58Z" transform="translate(-257.01 -176.54)"/><polygon class="cls-7" points="213.31 257.86 177.54 133.95 277.75 166.93 213.31 257.86"/><polygon class="cls-8" points="64.44 257.86 100.21 133.95 0 166.93 64.44 257.86"/><circle class="cls-9" cx="204.37" cy="105.65" r="23.28"/><circle class="cls-10" cx="204.37" cy="105.65" r="9.3"/><polygon class="cls-9" points="76.11 50.19 70.05 71.57 85.53 87.51 107.07 82.07 113.13 60.69 97.66 44.76 76.11 50.19"/><circle class="cls-10" cx="91.69" cy="65.8" r="9.56"/></svg>