<svg xmlns="http://www.w3.org/2000/svg" xmlns:xlink="http://www.w3.org/1999/xlink" viewBox="0 0 269.02 326.38"><defs><style>.cls-1{isolation:isolate;}.cls-2,.cls-66,.cls-67,.cls-68{opacity:0.9;}.cls-2{fill:url(#linear-gradient);}.cls-112,.cls-3,.cls-72,.cls-92,.cls-95,.cls-96{opacity:0.95;}.cls-3{fill:url(#linear-gradient-2);}.cls-4{opacity:0.2;}.cls-27,.cls-5{fill:#afb6e5;}.cls-5{opacity:0;}.cls-6{fill:#abb2e2;opacity:0.05;}.cls-7,.cls-82{fill:#a7addf;}.cls-7{opacity:0.1;}.cls-8{fill:#a3a9dc;opacity:0.14;}.cls-9{fill:#9fa4d8;opacity:0.19;}.cls-10,.cls-55{fill:#9ba0d5;}.cls-10{opacity:0.24;}.cls-11{fill:#979bd2;opacity:0.29;}.cls-12{fill:#9397cf;opacity:0.33;}.cls-13,.cls-98{fill:#8f92cc;}.cls-13{opacity:0.38;}.cls-14{fill:#8b8ec9;opacity:0.43;}.cls-15{fill:#8789c6;opacity:0.48;}.cls-16{fill:#8385c2;opacity:0.52;}.cls-17{fill:#7f80bf;opacity:0.57;}.cls-18{fill:#7b7cbc;opacity:0.62;}.cls-19{fill:#7777b9;opacity:0.67;}.cls-20{fill:#7373b6;opacity:0.71;}.cls-21{fill:#6f6eb3;opacity:0.76;}.cls-22{fill:#6b6ab0;opacity:0.81;}.cls-23,.cls-64{fill:#6765ac;}.cls-23{opacity:0.86;}.cls-24,.cls-91{fill:#6361a9;}.cls-24{opacity:0.9;}.cls-25{fill:#5f5ca6;opacity:0.95;}.cls-26{fill:#5b58a3;}.cls-28{fill:url(#linear-gradient-3);}.cls-29{fill:url(#linear-gradient-4);}.cls-30{fill:url(#linear-gradient-5);}.cls-31{fill:url(#linear-gradient-6);}.cls-32{fill:url(#linear-gradient-7);}.cls-33{fill:url(#linear-gradient-8);}.cls-34{fill:url(#linear-gradient-9);}.cls-35{fill:url(#linear-gradient-10);}.cls-36{fill:url(#linear-gradient-11);}.cls-37{fill:url(#linear-gradient-12);}.cls-38{fill:url(#linear-gradient-13);}.cls-39{fill:url(#linear-gradient-14);}.cls-40{fill:url(#linear-gradient-15);}.cls-41{fill:url(#linear-gradient-16);}.cls-42{fill:url(#linear-gradient-17);}.cls-43{fill:url(#linear-gradient-18);}.cls-44{fill:url(#linear-gradient-19);}.cls-45{fill:url(#linear-gradient-20);}.cls-46{fill:url(#linear-gradient-21);}.cls-47{fill:url(#linear-gradient-22);}.cls-48{fill:url(#linear-gradient-23);}.cls-112,.cls-49,.cls-66{fill:#fff;}.cls-50{fill:url(#linear-gradient-24);}.cls-51{fill:url(#linear-gradient-25);}.cls-52{fill:url(#linear-gradient-26);}.cls-53{fill:url(#linear-gradient-27);}.cls-54{opacity:0.3;mix-blend-mode:multiply;}.cls-55{opacity:0.24;}.cls-56{fill:#9599d0;opacity:0.31;}.cls-57{fill:#8f93cc;opacity:0.38;}.cls-58{fill:#8a8cc7;opacity:0.45;}.cls-59{fill:#8486c3;opacity:0.52;}.cls-60{fill:#7e7fbe;opacity:0.58;}.cls-61{fill:#7879ba;opacity:0.65;}.cls-62,.cls-89{fill:#7272b5;}.cls-62{opacity:0.72;}.cls-63{fill:#6c6cb1;opacity:0.79;}.cls-64{opacity:0.86;}.cls-65{fill:#615fa8;opacity:0.93;}.cls-67{fill:url(#linear-gradient-28);}.cls-68{fill:url(#linear-gradient-29);}.cls-110,.cls-69,.cls-93{mix-blend-mode:color-dodge;}.cls-69{fill:url(#radial-gradient);}.cls-70,.cls-94{mix-blend-mode:screen;}.cls-70{fill:url(#radial-gradient-2);}.cls-71{fill:url(#linear-gradient-30);}.cls-72{fill:url(#linear-gradient-31);}.cls-73{fill:url(#linear-gradient-32);}.cls-74{fill:url(#linear-gradient-33);}.cls-75{fill:#ced3f4;}.cls-76{fill:url(#linear-gradient-34);}.cls-77{fill:url(#linear-gradient-35);}.cls-78{fill:url(#linear-gradient-36);}.cls-79{fill:url(#linear-gradient-37);}.cls-80{fill:url(#linear-gradient-38);}.cls-81{fill:url(#linear-gradient-39);}.cls-82{opacity:0.09;}.cls-83{fill:#a0a5d9;opacity:0.18;}.cls-84{fill:#989cd3;opacity:0.27;}.cls-85{fill:#9094cd;opacity:0.36;}.cls-86{fill:#898bc7;opacity:0.45;}.cls-87{fill:#8183c1;opacity:0.55;}.cls-88{fill:#7a7abb;opacity:0.64;}.cls-89{opacity:0.73;}.cls-90{fill:#6a69af;opacity:0.82;}.cls-91{opacity:0.91;}.cls-92{fill:url(#linear-gradient-40);}.cls-93{fill:url(#radial-gradient-3);}.cls-94{fill:url(#radial-gradient-4);}.cls-95{fill:url(#linear-gradient-41);}.cls-96{fill:url(#linear-gradient-42);}.cls-97{fill:#dcdff4;}.cls-98{opacity:0.38;}.cls-99{fill:#8a8dc8;opacity:0.44;}.cls-100{fill:#8687c5;opacity:0.49;}.cls-101{fill:#8182c1;opacity:0.55;}.cls-102{fill:#7c7dbd;opacity:0.61;}.cls-103{fill:#7778b9;opacity:0.66;}.cls-104{fill:#7372b6;opacity:0.72;}.cls-105{fill:#6e6db2;opacity:0.77;}.cls-106{fill:#6968ae;opacity:0.83;}.cls-107{fill:#6463aa;opacity:0.89;}.cls-108{fill:#605da7;opacity:0.94;}.cls-109{fill:url(#linear-gradient-43);}.cls-110{fill:url(#radial-gradient-5);}.cls-111{fill:url(#linear-gradient-44);}.cls-113{fill:url(#linear-gradient-45);}.cls-114{fill:url(#linear-gradient-46);}</style><linearGradient id="linear-gradient" x1="377.09" y1="86.86" x2="386.76" y2="255.19" gradientUnits="userSpaceOnUse"><stop offset="0.03" stop-color="#bb6df3"/><stop offset="0.38" stop-color="#976df3"/><stop offset="0.56" stop-color="#836df3"/><stop offset="0.69" stop-color="#796ff4"/><stop offset="0.92" stop-color="#5d75f6"/><stop offset="1" stop-color="#5277f7"/></linearGradient><linearGradient id="linear-gradient-2" x1="500.98" y1="192.87" x2="545.98" y2="321.87" gradientUnits="userSpaceOnUse"><stop offset="0.01" stop-color="#2be9a3"/><stop offset="0.29" stop-color="#07cdbf"/><stop offset="0.34" stop-color="#00c7c5"/><stop offset="0.44" stop-color="#09beca"/><stop offset="0.59" stop-color="#21a7d9"/><stop offset="0.77" stop-color="#4881f1"/><stop offset="0.82" stop-color="#5277f7"/></linearGradient><linearGradient id="linear-gradient-3" x1="409.39" y1="85" x2="508.23" y2="390.1" gradientUnits="userSpaceOnUse"><stop offset="0" stop-color="#b0b7e6"/><stop offset="0.19" stop-color="#b2b8e6"/><stop offset="0.28" stop-color="#b3b9e6"/><stop offset="0.41" stop-color="#afb6e5"/><stop offset="0.91" stop-color="#afb6e5"/><stop offset="1" stop-color="#b0b7e6"/></linearGradient><linearGradient id="linear-gradient-4" x1="409.29" y1="85.04" x2="508.13" y2="390.14" gradientUnits="userSpaceOnUse"><stop offset="0" stop-color="#b2b9e6"/><stop offset="0.19" stop-color="#b4bbe7"/><stop offset="0.28" stop-color="#b7bde7"/><stop offset="0.41" stop-color="#afb6e5"/><stop offset="0.91" stop-color="#afb6e5"/><stop offset="1" stop-color="#b2b9e6"/></linearGradient><linearGradient id="linear-gradient-5" x1="409.2" y1="85.08" x2="508.03" y2="390.17" gradientUnits="userSpaceOnUse"><stop offset="0" stop-color="#b3bae7"/><stop offset="0.19" stop-color="#b7bde9"/><stop offset="0.28" stop-color="#bac0e9"/><stop offset="0.41" stop-color="#afb6e5"/><stop offset="0.91" stop-color="#afb6e5"/><stop offset="1" stop-color="#b3bae7"/></linearGradient><linearGradient id="linear-gradient-6" x1="409.1" y1="85.12" x2="507.93" y2="390.2" gradientUnits="userSpaceOnUse"><stop offset="0" stop-color="#b5bbe8"/><stop offset="0.19" stop-color="#b9c0ea"/><stop offset="0.28" stop-color="#bec4ea"/><stop offset="0.41" stop-color="#afb6e5"/><stop offset="0.91" stop-color="#afb6e5"/><stop offset="1" stop-color="#b5bbe8"/></linearGradient><linearGradient id="linear-gradient-7" x1="409" y1="85.16" x2="507.83" y2="390.23" gradientUnits="userSpaceOnUse"><stop offset="0" stop-color="#b6bde8"/><stop offset="0.19" stop-color="#bcc2eb"/><stop offset="0.28" stop-color="#c2c7eb"/><stop offset="0.41" stop-color="#afb6e5"/><stop offset="0.91" stop-color="#afb6e5"/><stop offset="1" stop-color="#b6bde8"/></linearGradient><linearGradient id="linear-gradient-8" x1="408.91" y1="85.2" x2="507.73" y2="390.27" gradientUnits="userSpaceOnUse"><stop offset="0" stop-color="#b8bee9"/><stop offset="0.19" stop-color="#bec5ec"/><stop offset="0.28" stop-color="#c6cbec"/><stop offset="0.39" stop-color="#b2b9e6"/><stop offset="0.41" stop-color="#afb6e5"/><stop offset="0.91" stop-color="#afb6e5"/><stop offset="1" stop-color="#b8bee9"/></linearGradient><linearGradient id="linear-gradient-9" x1="408.81" y1="85.24" x2="507.63" y2="390.3" gradientUnits="userSpaceOnUse"><stop offset="0" stop-color="#b9bfea"/><stop offset="0.19" stop-color="#c1c7ee"/><stop offset="0.28" stop-color="#caceee"/><stop offset="0.38" stop-color="#b6bde7"/><stop offset="0.41" stop-color="#afb6e5"/><stop offset="0.91" stop-color="#afb6e5"/><stop offset="1" stop-color="#b9bfea"/></linearGradient><linearGradient id="linear-gradient-10" x1="408.71" y1="85.28" x2="507.53" y2="390.33" gradientUnits="userSpaceOnUse"><stop offset="0" stop-color="#bac1ea"/><stop offset="0.19" stop-color="#c4c9ef"/><stop offset="0.28" stop-color="#cdd2ef"/><stop offset="0.37" stop-color="#b9c0e8"/><stop offset="0.41" stop-color="#afb6e5"/><stop offset="0.91" stop-color="#afb6e5"/><stop offset="1" stop-color="#bac1ea"/><stop offset="1" stop-color="#bac1ea"/></linearGradient><linearGradient id="linear-gradient-11" x1="408.62" y1="85.32" x2="507.43" y2="390.36" gradientUnits="userSpaceOnUse"><stop offset="0" stop-color="#bcc2eb"/><stop offset="0.19" stop-color="#c6ccf0"/><stop offset="0.28" stop-color="#d0d4f0"/><stop offset="0.28" stop-color="#d1d5f0"/><stop offset="0.36" stop-color="#bdc3ea"/><stop offset="0.41" stop-color="#afb6e5"/><stop offset="0.91" stop-color="#afb6e5"/><stop offset="0.99" stop-color="#bac0ea"/><stop offset="1" stop-color="#bcc2eb"/></linearGradient><linearGradient id="linear-gradient-12" x1="408.52" y1="85.36" x2="507.33" y2="390.39" gradientUnits="userSpaceOnUse"><stop offset="0" stop-color="#bdc3ec"/><stop offset="0.19" stop-color="#c9cef1"/><stop offset="0.27" stop-color="#d3d7f1"/><stop offset="0.28" stop-color="#d5d9f1"/><stop offset="0.35" stop-color="#c1c7eb"/><stop offset="0.41" stop-color="#afb6e5"/><stop offset="0.91" stop-color="#afb6e5"/><stop offset="0.98" stop-color="#bac0ea"/><stop offset="1" stop-color="#bdc3ec"/></linearGradient><linearGradient id="linear-gradient-13" x1="408.42" y1="85.41" x2="507.23" y2="390.43" gradientUnits="userSpaceOnUse"><stop offset="0" stop-color="#bfc5ec"/><stop offset="0.19" stop-color="#cbd1f3"/><stop offset="0.26" stop-color="#d5d9f3"/><stop offset="0.28" stop-color="#d9dcf3"/><stop offset="0.35" stop-color="#c5caec"/><stop offset="0.41" stop-color="#afb6e5"/><stop offset="0.91" stop-color="#afb6e5"/><stop offset="0.98" stop-color="#bac0ea"/><stop offset="1" stop-color="#bfc5ec"/></linearGradient><linearGradient id="linear-gradient-14" x1="408.33" y1="85.45" x2="507.13" y2="390.46" gradientUnits="userSpaceOnUse"><stop offset="0" stop-color="#c0c6ed"/><stop offset="0.19" stop-color="#ced3f4"/><stop offset="0.26" stop-color="#d8dcf4"/><stop offset="0.28" stop-color="#dde0f4"/><stop offset="0.34" stop-color="#c9ceee"/><stop offset="0.41" stop-color="#afb6e5"/><stop offset="0.91" stop-color="#afb6e5"/><stop offset="0.97" stop-color="#bac0ea"/><stop offset="1" stop-color="#c0c6ed"/></linearGradient><linearGradient id="linear-gradient-15" x1="408.23" y1="85.49" x2="507.03" y2="390.49" gradientUnits="userSpaceOnUse"><stop offset="0" stop-color="#c2c7ee"/><stop offset="0.19" stop-color="#d0d6f5"/><stop offset="0.25" stop-color="#dadef5"/><stop offset="0.28" stop-color="#e1e3f5"/><stop offset="0.34" stop-color="#cdd1ef"/><stop offset="0.41" stop-color="#afb6e5"/><stop offset="0.91" stop-color="#afb6e5"/><stop offset="0.97" stop-color="#bac0ea"/><stop offset="1" stop-color="#c2c7ee"/></linearGradient><linearGradient id="linear-gradient-16" x1="408.13" y1="85.53" x2="506.93" y2="390.52" gradientUnits="userSpaceOnUse"><stop offset="0" stop-color="#c3c9ee"/><stop offset="0.19" stop-color="#d3d8f6"/><stop offset="0.25" stop-color="#dde1f6"/><stop offset="0.28" stop-color="#e4e7f6"/><stop offset="0.34" stop-color="#d0d5f0"/><stop offset="0.41" stop-color="#afb6e5"/><stop offset="0.91" stop-color="#afb6e5"/><stop offset="0.97" stop-color="#bac0ea"/><stop offset="1" stop-color="#c3c9ee"/></linearGradient><linearGradient id="linear-gradient-17" x1="408.04" y1="85.57" x2="506.83" y2="390.55" gradientUnits="userSpaceOnUse"><stop offset="0" stop-color="#c4caef"/><stop offset="0.19" stop-color="#d6daf8"/><stop offset="0.25" stop-color="#e0e3f8"/><stop offset="0.28" stop-color="#e8eaf8"/><stop offset="0.33" stop-color="#d4d8f1"/><stop offset="0.41" stop-color="#afb6e5"/><stop offset="0.91" stop-color="#afb6e5"/><stop offset="0.96" stop-color="#bac0ea"/><stop offset="1" stop-color="#c4caef"/></linearGradient><linearGradient id="linear-gradient-18" x1="407.94" y1="85.61" x2="506.74" y2="390.59" gradientUnits="userSpaceOnUse"><stop offset="0" stop-color="#c6cbf0"/><stop offset="0.19" stop-color="#d8ddf9"/><stop offset="0.25" stop-color="#e2e6f9"/><stop offset="0.28" stop-color="#eceef9"/><stop offset="0.33" stop-color="#d8dcf3"/><stop offset="0.41" stop-color="#afb6e5"/><stop offset="0.91" stop-color="#afb6e5"/><stop offset="0.96" stop-color="#bac0ea"/><stop offset="1" stop-color="#c6cbf0"/></linearGradient><linearGradient id="linear-gradient-19" x1="407.84" y1="85.65" x2="506.64" y2="390.62" gradientUnits="userSpaceOnUse"><stop offset="0" stop-color="#c7cdf0"/><stop offset="0.19" stop-color="#dbdffa"/><stop offset="0.24" stop-color="#e5e8fa"/><stop offset="0.28" stop-color="#f0f1fa"/><stop offset="0.33" stop-color="#dcdff4"/><stop offset="0.41" stop-color="#afb6e5"/><stop offset="0.91" stop-color="#afb6e5"/><stop offset="0.96" stop-color="#bac0ea"/><stop offset="1" stop-color="#c7cdf0"/></linearGradient><linearGradient id="linear-gradient-20" x1="407.75" y1="85.69" x2="506.54" y2="390.65" gradientUnits="userSpaceOnUse"><stop offset="0" stop-color="#c9cef1"/><stop offset="0.19" stop-color="#dde2fb"/><stop offset="0.24" stop-color="#e7eafb"/><stop offset="0.28" stop-color="#f4f5fb"/><stop offset="0.33" stop-color="#e0e3f5"/><stop offset="0.41" stop-color="#afb6e5"/><stop offset="0.91" stop-color="#afb6e5"/><stop offset="0.96" stop-color="#bac0ea"/><stop offset="1" stop-color="#c9cef1"/></linearGradient><linearGradient id="linear-gradient-21" x1="407.65" y1="85.73" x2="506.44" y2="390.68" gradientUnits="userSpaceOnUse"><stop offset="0" stop-color="#cacff2"/><stop offset="0.19" stop-color="#e0e4fd"/><stop offset="0.24" stop-color="#eaedfd"/><stop offset="0.28" stop-color="#f7f8fd"/><stop offset="0.32" stop-color="#e3e6f6"/><stop offset="0.41" stop-color="#b1b8e6"/><stop offset="0.41" stop-color="#afb6e5"/><stop offset="0.91" stop-color="#afb6e5"/><stop offset="0.95" stop-color="#bac0ea"/><stop offset="1" stop-color="#cacff2"/></linearGradient><linearGradient id="linear-gradient-22" x1="407.55" y1="85.77" x2="506.34" y2="390.72" gradientUnits="userSpaceOnUse"><stop offset="0" stop-color="#ccd1f2"/><stop offset="0.19" stop-color="#e2e7fe"/><stop offset="0.24" stop-color="#eceffe"/><stop offset="0.28" stop-color="#fbfcfe"/><stop offset="0.32" stop-color="#e7eaf8"/><stop offset="0.4" stop-color="#b5bbe7"/><stop offset="0.41" stop-color="#afb6e5"/><stop offset="0.91" stop-color="#afb6e5"/><stop offset="0.95" stop-color="#bac0ea"/><stop offset="1" stop-color="#ccd1f2"/></linearGradient><linearGradient id="linear-gradient-23" x1="407.46" y1="85.81" x2="506.24" y2="390.75" gradientUnits="userSpaceOnUse"><stop offset="0" stop-color="#cdd2f3"/><stop offset="0.19" stop-color="#e5e9ff"/><stop offset="0.24" stop-color="#eff2ff"/><stop offset="0.28" stop-color="#fff"/><stop offset="0.32" stop-color="#ebedf9"/><stop offset="0.4" stop-color="#b9bfe8"/><stop offset="0.41" stop-color="#afb6e5"/><stop offset="0.91" stop-color="#afb6e5"/><stop offset="0.95" stop-color="#bac0ea"/><stop offset="1" stop-color="#cdd2f3"/></linearGradient><linearGradient id="linear-gradient-24" x1="250.67" y1="321.97" x2="599.23" y2="179.33" gradientUnits="userSpaceOnUse"><stop offset="0" stop-color="#afb6e5"/><stop offset="0.14" stop-color="#b6bce8"/><stop offset="0.35" stop-color="#c8cdf1"/><stop offset="0.58" stop-color="#e5e9ff"/><stop offset="0.86" stop-color="#f5f6ff"/><stop offset="1" stop-color="#fff"/></linearGradient><linearGradient id="linear-gradient-25" x1="386.35" y1="122.7" x2="540.4" y2="416.43" gradientUnits="userSpaceOnUse"><stop offset="0.01" stop-color="#273b98"/><stop offset="0.23" stop-color="#2f2ba2"/><stop offset="0.4" stop-color="#361cac"/><stop offset="0.77" stop-color="#440b89"/><stop offset="1" stop-color="#4e0070"/></linearGradient><linearGradient id="linear-gradient-26" x1="527.71" y1="232.18" x2="477.56" y2="205.31" xlink:href="#linear-gradient-24"/><linearGradient id="linear-gradient-27" x1="431.48" y1="332.7" x2="462.57" y2="148.06" gradientUnits="userSpaceOnUse"><stop offset="0" stop-color="#5277f7"/><stop offset="0.09" stop-color="#5b76f7"/><stop offset="0.24" stop-color="#7374f6"/><stop offset="0.42" stop-color="#9a70f4"/><stop offset="0.56" stop-color="#bb6df3"/><stop offset="1" stop-color="#f36dd4"/></linearGradient><linearGradient id="linear-gradient-28" x1="434.45" y1="333.41" x2="356.42" y2="129.32" xlink:href="#linear-gradient"/><linearGradient id="linear-gradient-29" x1="457.48" y1="335.11" x2="368.75" y2="227.14" gradientUnits="userSpaceOnUse"><stop offset="0.03" stop-color="#bb6df3"/><stop offset="0.6" stop-color="#5b41e0"/><stop offset="0.71" stop-color="#594be4"/><stop offset="0.91" stop-color="#5567f0"/><stop offset="1" stop-color="#5277f7"/></linearGradient><radialGradient id="radial-gradient" cx="413.75" cy="140.61" r="93.5" gradientUnits="userSpaceOnUse"><stop offset="0" stop-color="#711f56"/><stop offset="0.16" stop-color="#6c1e52"/><stop offset="0.36" stop-color="#5c1946"/><stop offset="0.58" stop-color="#431233"/><stop offset="0.82" stop-color="#200918"/><stop offset="1"/></radialGradient><radialGradient id="radial-gradient-2" cx="-732.24" cy="222.01" r="21.09" gradientTransform="translate(599.06 -138.34) scale(0.7 1.6)" gradientUnits="userSpaceOnUse"><stop offset="0" stop-color="#836df3"/><stop offset="0.11" stop-color="#6655bd"/><stop offset="0.23" stop-color="#4b3e8b"/><stop offset="0.36" stop-color="#342b60"/><stop offset="0.48" stop-color="#211c3e"/><stop offset="0.61" stop-color="#130f23"/><stop offset="0.73" stop-color="#08070f"/><stop offset="0.86" stop-color="#020204"/><stop offset="1"/></radialGradient><linearGradient id="linear-gradient-30" x1="327.55" y1="167.63" x2="350.55" y2="254.63" xlink:href="#linear-gradient"/><linearGradient id="linear-gradient-31" x1="545.36" y1="195.72" x2="587.61" y2="313.22" xlink:href="#linear-gradient-2"/><linearGradient id="linear-gradient-32" x1="553.76" y1="244.69" x2="570.09" y2="236.02" gradientUnits="userSpaceOnUse"><stop offset="0.08" stop-color="#b4f759"/><stop offset="0.14" stop-color="#adf65d"/><stop offset="0.24" stop-color="#9af467"/><stop offset="0.36" stop-color="#7af178"/><stop offset="0.48" stop-color="#4fed90"/><stop offset="0.58" stop-color="#2be9a3"/><stop offset="0.7" stop-color="#24e4a8"/><stop offset="0.87" stop-color="#11d4b8"/><stop offset="0.98" stop-color="#00c7c5"/></linearGradient><linearGradient id="linear-gradient-33" x1="334.64" y1="204.09" x2="344.64" y2="225.09" gradientUnits="userSpaceOnUse"><stop offset="0.06" stop-color="#f36dd4"/><stop offset="0.2" stop-color="#e96dda"/><stop offset="0.43" stop-color="#cd6de9"/><stop offset="0.55" stop-color="#bb6df3"/><stop offset="1" stop-color="#836df3"/></linearGradient><linearGradient id="linear-gradient-34" x1="373.8" y1="153.16" x2="402.73" y2="237.34" gradientUnits="userSpaceOnUse"><stop offset="0" stop-color="#836df3"/><stop offset="0.14" stop-color="#8c6df3"/><stop offset="0.38" stop-color="#a46df3"/><stop offset="0.56" stop-color="#bb6df3"/><stop offset="1" stop-color="#f36dd4"/></linearGradient><linearGradient id="linear-gradient-35" x1="396.32" y1="155.39" x2="397.62" y2="228.68" gradientUnits="userSpaceOnUse"><stop offset="0" stop-color="#6cf"/><stop offset="0.45" stop-color="#5ea8fc"/><stop offset="1" stop-color="#5277f7"/></linearGradient><linearGradient id="linear-gradient-36" x1="426.65" y1="178.59" x2="394.79" y2="199.23" gradientUnits="userSpaceOnUse"><stop offset="0" stop-color="#dfed72"/><stop offset="0.44" stop-color="#b4f759"/><stop offset="0.57" stop-color="#adf65d"/><stop offset="0.76" stop-color="#9af467"/><stop offset="0.98" stop-color="#7bf178"/><stop offset="1" stop-color="#78f179"/></linearGradient><linearGradient id="linear-gradient-37" x1="419.73" y1="202.16" x2="416.14" y2="216.72" gradientUnits="userSpaceOnUse"><stop offset="0" stop-color="#ffe585"/><stop offset="0.28" stop-color="#dbee70"/><stop offset="0.55" stop-color="#b4f759"/><stop offset="0.66" stop-color="#adf65d"/><stop offset="0.81" stop-color="#9af467"/><stop offset="0.99" stop-color="#7bf178"/><stop offset="1" stop-color="#78f179"/></linearGradient><linearGradient id="linear-gradient-38" x1="417.22" y1="218.17" x2="413.73" y2="232.93" xlink:href="#linear-gradient-35"/><linearGradient id="linear-gradient-39" x1="416.68" y1="219.18" x2="414.29" y2="235.33" xlink:href="#linear-gradient-34"/><linearGradient id="linear-gradient-40" x1="441.92" y1="223.59" x2="534.6" y2="223.59" xlink:href="#linear-gradient-2"/><radialGradient id="radial-gradient-3" cx="488.26" cy="214.76" r="87.22" xlink:href="#radial-gradient"/><radialGradient id="radial-gradient-4" cx="559.34" cy="137.46" r="15.75" gradientTransform="translate(-438.31 -106.58) scale(1.03 1.7)" gradientUnits="userSpaceOnUse"><stop offset="0" stop-color="#00c7c5"/><stop offset="0.03" stop-color="#00bdbb"/><stop offset="0.16" stop-color="#008b8a"/><stop offset="0.29" stop-color="#00605f"/><stop offset="0.43" stop-color="#003e3d"/><stop offset="0.57" stop-color="#002322"/><stop offset="0.71" stop-color="#000f0f"/><stop offset="0.85" stop-color="#000404"/><stop offset="1"/></radialGradient><linearGradient id="linear-gradient-41" x1="477.84" y1="248.07" x2="452.59" y2="198.07" gradientTransform="translate(177.67 -204.6) rotate(30.31)" xlink:href="#linear-gradient-2"/><linearGradient id="linear-gradient-42" x1="486.31" y1="256.81" x2="462.56" y2="215.31" xlink:href="#linear-gradient-2"/><linearGradient id="linear-gradient-43" x1="378.73" y1="257.08" x2="436.4" y2="308.08" gradientUnits="userSpaceOnUse"><stop offset="0" stop-color="#fffa84"/><stop offset="0.39" stop-color="#c8f864"/><stop offset="0.53" stop-color="#b4f759"/><stop offset="0.83" stop-color="#88f371"/><stop offset="1" stop-color="#6ef07f"/></linearGradient><radialGradient id="radial-gradient-5" cx="411.21" cy="277.65" r="54.55" xlink:href="#radial-gradient"/><linearGradient id="linear-gradient-44" x1="407.71" y1="279.59" x2="444.65" y2="312.26" xlink:href="#linear-gradient-43"/><linearGradient id="linear-gradient-45" x1="337.67" y1="210.55" x2="349.92" y2="226.8" xlink:href="#linear-gradient-33"/><linearGradient id="linear-gradient-46" x1="559.24" y1="242.36" x2="577.49" y2="236.23" xlink:href="#linear-gradient-32"/></defs><title>telefono5</title><g class="cls-1"><g id="Layer_1" data-name="Layer 1"><path class="cls-2" d="M417.91,291h-.18a.5.5,0,1,1,0-1h.16a6.28,6.28,0,0,0,2.55-.51.5.5,0,0,1,.66.26.5.5,0,0,1-.26.66A7.37,7.37,0,0,1,417.91,291Zm-3.1-.54a.45.45,0,0,1-.16,0,14.86,14.86,0,0,1-2.78-1.27.51.51,0,0,1-.2-.69.49.49,0,0,1,.67-.19h0a13.88,13.88,0,0,0,2.6,1.19.5.5,0,0,1,.31.63A.5.5,0,0,1,414.81,290.44Zm8.2-1.81a.47.47,0,0,1-.31-.12.49.49,0,0,1-.07-.7,7.65,7.65,0,0,0,1.31-2.47.5.5,0,0,1,.64-.31.5.5,0,0,1,.31.63,8.6,8.6,0,0,1-1.49,2.78A.51.51,0,0,1,423,288.63Zm-13.51-.93a.45.45,0,0,1-.25-.07l-2.6-1.49a.51.51,0,0,1-.18-.69.49.49,0,0,1,.68-.18l2.6,1.49a.51.51,0,0,1,.18.69A.5.5,0,0,1,409.5,287.7Zm-5.19-3a.45.45,0,0,1-.25-.07l-2.6-1.49a.49.49,0,0,1-.18-.68.51.51,0,0,1,.68-.19l2.6,1.5a.5.5,0,0,1-.25.93ZM425,283.07h0a.5.5,0,0,1-.46-.54c0-.38,0-.78,0-1.18v-1.77a.5.5,0,0,1,.5-.5.5.5,0,0,1,.5.5v1.77c0,.43,0,.85,0,1.26A.5.5,0,0,1,425,283.07Zm-25.86-1.35a.54.54,0,0,1-.25-.06l-2.6-1.5a.5.5,0,0,1,.5-.86l2.6,1.49a.5.5,0,0,1-.25.93Zm-5.19-3a.54.54,0,0,1-.25-.06l-2.6-1.5a.5.5,0,0,1,.5-.86l2.6,1.49a.5.5,0,0,1,.18.68A.48.48,0,0,1,393.93,278.73Zm31.1-1.65a.5.5,0,0,1-.5-.5v-3a.5.5,0,0,1,.5-.5.5.5,0,0,1,.5.5v3A.5.5,0,0,1,425,277.08Zm-36.29-1.33a.45.45,0,0,1-.25-.07l-2.6-1.49a.51.51,0,0,1-.18-.69.49.49,0,0,1,.68-.18l2.6,1.49a.51.51,0,0,1,.18.69A.5.5,0,0,1,388.74,275.75Zm-5.19-3a.45.45,0,0,1-.25-.07l-2.6-1.49a.49.49,0,0,1-.18-.68.51.51,0,0,1,.68-.19l2.6,1.5a.5.5,0,0,1-.25.93ZM425,271.09a.5.5,0,0,1-.5-.5v-3a.5.5,0,0,1,.5-.5.5.5,0,0,1,.5.5v3A.5.5,0,0,1,425,271.09Zm-46.67-1.32a.54.54,0,0,1-.25-.06l-2.6-1.5a.5.5,0,1,1,.5-.86l2.6,1.49a.5.5,0,0,1,.18.68A.5.5,0,0,1,378.36,269.77Zm-5.19-3a.55.55,0,0,1-.25-.07l-2.6-1.49a.51.51,0,0,1-.18-.69.49.49,0,0,1,.68-.18l2.6,1.49a.51.51,0,0,1,.18.69A.5.5,0,0,1,373.17,266.79ZM425,265.11a.5.5,0,0,1-.5-.5v-3a.5.5,0,0,1,.5-.5.5.5,0,0,1,.5.5v3A.51.51,0,0,1,425,265.11Zm-57-1.31a.43.43,0,0,1-.25-.07l-2.6-1.49a.5.5,0,0,1,.5-.87l2.59,1.5a.5.5,0,0,1-.24.93Zm-5.19-3a.43.43,0,0,1-.25-.07l-2.6-1.49a.49.49,0,0,1-.18-.68.5.5,0,0,1,.68-.19l2.59,1.5a.5.5,0,0,1-.24.93ZM425,259.12a.5.5,0,0,1-.5-.5v-3a.5.5,0,0,1,.5-.5.51.51,0,0,1,.5.5v3A.51.51,0,0,1,425,259.12Zm-67.44-1.3a.5.5,0,0,1-.24-.06l-2.6-1.5a.5.5,0,1,1,.5-.86l2.59,1.49a.5.5,0,0,1-.25.93Zm-5.17-3a.53.53,0,0,1-.27-.08,21.62,21.62,0,0,1-2.43-1.87.49.49,0,0,1-.05-.7.51.51,0,0,1,.71,0,19.65,19.65,0,0,0,2.32,1.78.5.5,0,0,1,.14.69A.51.51,0,0,1,352.42,254.81ZM425,253.13a.5.5,0,0,1-.5-.5v-3a.5.5,0,0,1,.5-.5.51.51,0,0,1,.5.5v3A.5.5,0,0,1,425,253.13Zm-77.11-2.25a.51.51,0,0,1-.37-.17,29.87,29.87,0,0,1-1.92-2.36.5.5,0,0,1,.81-.59c.59.8,1.21,1.57,1.85,2.28a.5.5,0,0,1-.37.84ZM425,247.14a.5.5,0,0,1-.5-.5v-3a.5.5,0,0,1,.5-.5.5.5,0,0,1,.5.5v3A.5.5,0,0,1,425,247.14Zm-80.64-1.09a.47.47,0,0,1-.43-.24,30.07,30.07,0,0,1-1.43-2.69.5.5,0,0,1,.9-.42c.42.88.88,1.76,1.38,2.6a.48.48,0,0,1-.17.68A.47.47,0,0,1,344.39,246.05Zm80.64-4.9a.5.5,0,0,1-.5-.5v-3a.5.5,0,0,1,.5-.5.5.5,0,0,1,.5.5v3A.5.5,0,0,1,425,241.15Zm-83.19-.51a.48.48,0,0,1-.47-.33,27,27,0,0,1-.86-2.93.5.5,0,1,1,1-.22,25.59,25.59,0,0,0,.82,2.82.49.49,0,0,1-.3.63A.51.51,0,0,1,341.84,240.64ZM425,235.16a.5.5,0,0,1-.5-.5v-3a.5.5,0,0,1,.5-.5.5.5,0,0,1,.5.5v3A.5.5,0,0,1,425,235.16Zm-84.51-.34a.51.51,0,0,1-.5-.46c0-.59-.08-1.18-.08-1.74v-1.3a.5.5,0,0,1,.5-.5.51.51,0,0,1,.5.5v1.3a15.56,15.56,0,0,0,.08,1.65.5.5,0,0,1-.46.54ZM425,229.17a.5.5,0,0,1-.5-.5v-3a.5.5,0,0,1,.5-.5.5.5,0,0,1,.5.5v3A.5.5,0,0,1,425,229.17Zm-84.59-.34a.5.5,0,0,1-.5-.5v-3a.5.5,0,0,1,.5-.5.5.5,0,0,1,.5.5v3A.5.5,0,0,1,340.44,228.83ZM425,223.19a.5.5,0,0,1-.5-.5v-3a.5.5,0,0,1,.5-.5.5.5,0,0,1,.5.5v3A.51.51,0,0,1,425,223.19Zm-84.59-.35a.5.5,0,0,1-.5-.5v-3a.5.5,0,0,1,.5-.5.5.5,0,0,1,.5.5v3A.5.5,0,0,1,340.44,222.84ZM425,217.2a.5.5,0,0,1-.5-.5v-3a.5.5,0,0,1,.5-.5.51.51,0,0,1,.5.5v3A.51.51,0,0,1,425,217.2Zm-84.59-.35a.5.5,0,0,1-.5-.5v-3a.5.5,0,0,1,.5-.5.5.5,0,0,1,.5.5v3A.5.5,0,0,1,340.44,216.85ZM425,211.21a.5.5,0,0,1-.5-.5v-3a.5.5,0,0,1,.5-.5.51.51,0,0,1,.5.5v3A.51.51,0,0,1,425,211.21Zm-84.59-.35a.5.5,0,0,1-.5-.5v-3a.5.5,0,0,1,.5-.5.5.5,0,0,1,.5.5v3A.5.5,0,0,1,340.44,210.86ZM425,205.22a.5.5,0,0,1-.5-.5v-3a.5.5,0,0,1,.5-.5.5.5,0,0,1,.5.5v3A.5.5,0,0,1,425,205.22Zm-84.59-.34a.5.5,0,0,1-.5-.5v-3a.5.5,0,0,1,.5-.5.5.5,0,0,1,.5.5v3A.51.51,0,0,1,340.44,204.88ZM425,199.23a.5.5,0,0,1-.5-.5v-3a.5.5,0,0,1,.5-.5.5.5,0,0,1,.5.5v3A.5.5,0,0,1,425,199.23Zm-84.59-.34a.5.5,0,0,1-.5-.5v-3a.5.5,0,0,1,.5-.5.51.51,0,0,1,.5.5v3A.51.51,0,0,1,340.44,198.89ZM425,193.24a.5.5,0,0,1-.5-.5v-3a.5.5,0,0,1,.5-.5.5.5,0,0,1,.5.5v3A.5.5,0,0,1,425,193.24Zm-84.59-.34a.5.5,0,0,1-.5-.5v-3a.5.5,0,0,1,.5-.5.51.51,0,0,1,.5.5v3A.51.51,0,0,1,340.44,192.9ZM425,187.25a.5.5,0,0,1-.5-.5v-3a.5.5,0,0,1,.5-.5.5.5,0,0,1,.5.5v3A.5.5,0,0,1,425,187.25Zm-84.59-.34a.5.5,0,0,1-.5-.5v-3a.5.5,0,0,1,.5-.5.5.5,0,0,1,.5.5v3A.5.5,0,0,1,340.44,186.91ZM425,181.27a.5.5,0,0,1-.5-.5v-3a.5.5,0,0,1,.5-.5.51.51,0,0,1,.5.5v3A.51.51,0,0,1,425,181.27Zm-84.59-.35a.5.5,0,0,1-.5-.5v-3a.5.5,0,0,1,.5-.5.5.5,0,0,1,.5.5v3A.5.5,0,0,1,340.44,180.92ZM425,175.28a.5.5,0,0,1-.5-.5v-3a.5.5,0,0,1,.5-.5.51.51,0,0,1,.5.5v3A.51.51,0,0,1,425,175.28Zm-84.59-.35a.5.5,0,0,1-.5-.5v-3a.5.5,0,0,1,.5-.5.5.5,0,0,1,.5.5v3A.5.5,0,0,1,340.44,174.93ZM425,169.29a.5.5,0,0,1-.5-.5v-3a.5.5,0,0,1,.5-.5.51.51,0,0,1,.5.5v3A.51.51,0,0,1,425,169.29Zm-84.59-.35a.5.5,0,0,1-.5-.5v-3a.5.5,0,0,1,.5-.5.5.5,0,0,1,.5.5v3A.5.5,0,0,1,340.44,168.94ZM425,163.3a.5.5,0,0,1-.5-.5v-3a.5.5,0,0,1,.5-.5.5.5,0,0,1,.5.5v3A.5.5,0,0,1,425,163.3ZM340.44,163a.5.5,0,0,1-.5-.5v-3a.5.5,0,0,1,.5-.5.51.51,0,0,1,.5.5v3A.51.51,0,0,1,340.44,163ZM425,157.31a.5.5,0,0,1-.5-.5v-3a.5.5,0,0,1,.5-.5.5.5,0,0,1,.5.5v3A.5.5,0,0,1,425,157.31ZM340.44,157a.5.5,0,0,1-.5-.5v-3a.5.5,0,0,1,.5-.5.51.51,0,0,1,.5.5v3A.51.51,0,0,1,340.44,157ZM425,151.32a.5.5,0,0,1-.5-.5v-3a.5.5,0,0,1,.5-.5.5.5,0,0,1,.5.5v3A.5.5,0,0,1,425,151.32ZM340.44,151a.5.5,0,0,1-.5-.5v-3a.5.5,0,0,1,.5-.5.51.51,0,0,1,.5.5v3A.51.51,0,0,1,340.44,151ZM425,145.33a.5.5,0,0,1-.5-.5v-3a.5.5,0,0,1,.5-.5.5.5,0,0,1,.5.5v3A.5.5,0,0,1,425,145.33ZM340.44,145a.5.5,0,0,1-.5-.5v-3a.5.5,0,0,1,.5-.5.5.5,0,0,1,.5.5v3A.5.5,0,0,1,340.44,145ZM425,139.35a.5.5,0,0,1-.5-.5v-1.32c0-.53,0-1.08-.08-1.63a.5.5,0,0,1,1-.09c.05.58.08,1.16.08,1.72v1.32A.51.51,0,0,1,425,139.35ZM340.44,139a.5.5,0,0,1-.5-.5v-3a.5.5,0,0,1,.5-.5.5.5,0,0,1,.5.5v3A.5.5,0,0,1,340.44,139Zm84-5.6A.51.51,0,0,1,424,133a23.58,23.58,0,0,0-.82-2.82.5.5,0,1,1,.95-.33,27.6,27.6,0,0,1,.85,2.93.51.51,0,0,1-.38.6Zm-84-.39a.5.5,0,0,1-.5-.5v-3a.5.5,0,0,1,.5-.5.5.5,0,0,1,.5.5v3A.5.5,0,0,1,340.44,133Zm82.06-5.25a.52.52,0,0,1-.46-.29c-.41-.87-.87-1.75-1.38-2.6a.51.51,0,0,1,.18-.69.49.49,0,0,1,.68.18c.53.88,1,1.78,1.43,2.68a.5.5,0,0,1-.24.67A.54.54,0,0,1,422.5,127.76ZM340.44,127a.5.5,0,0,1-.5-.5v-3a.5.5,0,0,1,.5-.5.5.5,0,0,1,.5.5v3A.5.5,0,0,1,340.44,127Zm79-4.41a.51.51,0,0,1-.41-.2,26.4,26.4,0,0,0-1.85-2.29.5.5,0,1,1,.74-.67,30,30,0,0,1,1.92,2.37.5.5,0,0,1-.11.69A.46.46,0,0,1,419.45,122.61Zm-79-1.57a.5.5,0,0,1-.5-.5v-3a.5.5,0,0,1,.5-.5.5.5,0,0,1,.5.5v3A.51.51,0,0,1,340.44,121Zm75-2.87a.5.5,0,0,1-.33-.12,20.51,20.51,0,0,0-2.32-1.78.51.51,0,0,1-.14-.7.5.5,0,0,1,.69-.14,21.62,21.62,0,0,1,2.43,1.87.5.5,0,0,1,0,.71A.49.49,0,0,1,415.44,118.17Zm-75-3.12a.5.5,0,0,1-.5-.5v-3a.5.5,0,0,1,.5-.5.51.51,0,0,1,.5.5v3A.51.51,0,0,1,340.44,115.05Zm70.05-.22a.55.55,0,0,1-.25-.07l-2.6-1.49a.51.51,0,0,1-.18-.69.49.49,0,0,1,.68-.18l2.6,1.49a.51.51,0,0,1,.18.69A.5.5,0,0,1,410.49,114.83Zm-5.19-3a.45.45,0,0,1-.25-.07l-2.59-1.49a.5.5,0,0,1,.49-.87l2.6,1.5a.5.5,0,0,1-.25.93Zm-64.86-2.78a.5.5,0,0,1-.5-.5v-3a.5.5,0,0,1,.5-.5.51.51,0,0,1,.5.5v3A.51.51,0,0,1,340.44,109.06Zm59.67-.21a.45.45,0,0,1-.25-.07l-2.6-1.49a.49.49,0,0,1-.18-.68.51.51,0,0,1,.68-.19l2.6,1.5a.5.5,0,0,1-.25.93Zm-5.19-3a.54.54,0,0,1-.25-.06l-2.6-1.5a.5.5,0,0,1,.5-.86l2.6,1.49a.5.5,0,0,1-.25.93Zm-54.48-2.79a.5.5,0,0,1-.5-.5v-3a.5.5,0,0,1,.5-.5.5.5,0,0,1,.5.5v3A.5.5,0,0,1,340.44,103.07Zm49.29-.19a.55.55,0,0,1-.25-.07l-2.6-1.49a.51.51,0,0,1-.18-.69.49.49,0,0,1,.68-.18l2.6,1.49a.51.51,0,0,1,.18.69A.5.5,0,0,1,389.73,102.88Zm-5.19-3a.45.45,0,0,1-.25-.07l-2.6-1.49a.5.5,0,0,1,.5-.87l2.6,1.5a.5.5,0,0,1-.25.93Zm-44.1-2.81a.5.5,0,0,1-.5-.5v-3a.5.5,0,0,1,.5-.5.5.5,0,0,1,.5.5v3A.5.5,0,0,1,340.44,97.08Zm38.91-.18a.45.45,0,0,1-.25-.07l-2.6-1.49a.49.49,0,0,1-.18-.68.51.51,0,0,1,.68-.19l2.6,1.5a.5.5,0,0,1-.25.93Zm-5.19-3a.54.54,0,0,1-.25-.06l-2.6-1.5a.5.5,0,0,1,.5-.86l2.6,1.49a.5.5,0,0,1-.25.93Zm-33.72-2.82a.5.5,0,0,1-.5-.5V88.8c0-.43,0-.84,0-1.24a.52.52,0,0,1,.54-.46.5.5,0,0,1,.46.54c0,.37,0,.76,0,1.15v1.8A.5.5,0,0,1,340.44,91.09ZM369,90.93a.45.45,0,0,1-.25-.07l-2.6-1.49a.51.51,0,0,1-.18-.69.49.49,0,0,1,.68-.18l2.6,1.49a.51.51,0,0,1,.18.69A.5.5,0,0,1,369,90.93Zm-5.19-3a.45.45,0,0,1-.25-.07l-2.6-1.49a.5.5,0,0,1,.5-.87L364,87a.5.5,0,0,1-.25.93ZM341,85.17a.45.45,0,0,1-.16,0,.51.51,0,0,1-.32-.63A8.94,8.94,0,0,1,342,81.72a.5.5,0,0,1,.78.63,8,8,0,0,0-1.31,2.47A.5.5,0,0,1,341,85.17ZM358.59,85a.54.54,0,0,1-.25-.06l-2.6-1.5a.5.5,0,1,1,.5-.86L358.83,84a.5.5,0,0,1-.24.93Zm-5.21-3a.46.46,0,0,1-.23-.06l0,0a14.18,14.18,0,0,0-2.63-1.2.51.51,0,0,1-.32-.63.5.5,0,0,1,.63-.32A15.92,15.92,0,0,1,353.6,81a.55.55,0,0,1,.21.7A.52.52,0,0,1,353.38,82Zm-8.6-1.24a.5.5,0,0,1-.21-1,7.35,7.35,0,0,1,3-.61h.15a.5.5,0,0,1,.49.52.49.49,0,0,1-.5.48h-.13a6.39,6.39,0,0,0-2.58.52A.51.51,0,0,1,344.78,80.72Z" transform="translate(-325.07 -79.16)"/><path class="cls-3" d="M554.9,324.5h0a10.22,10.22,0,0,1-3.08-.57.49.49,0,0,1-.32-.63.5.5,0,0,1,.63-.31,9.59,9.59,0,0,0,2.79.51.5.5,0,0,1,0,1Zm2.91-.55a.49.49,0,0,1-.45-.3.49.49,0,0,1,.25-.65,5.84,5.84,0,0,0,2.17-1.66.49.49,0,0,1,.7-.07.49.49,0,0,1,.08.7,6.78,6.78,0,0,1-2.55,1.94A.45.45,0,0,1,557.81,324Zm-8.56-1.23a.55.55,0,0,1-.25-.07l-2.6-1.49a.51.51,0,0,1-.18-.69.49.49,0,0,1,.68-.18l2.6,1.49a.5.5,0,0,1,.18.68A.49.49,0,0,1,549.25,322.72Zm-5.19-3a.45.45,0,0,1-.25-.07l-2.6-1.49a.5.5,0,0,1,.5-.87l2.6,1.49a.51.51,0,0,1,.18.69A.5.5,0,0,1,544.06,319.73Zm17.51-.2-.16,0a.49.49,0,0,1-.31-.63,11.49,11.49,0,0,0,.53-2.81.51.51,0,0,1,.54-.46.49.49,0,0,1,.46.53,12.58,12.58,0,0,1-.59,3.06A.49.49,0,0,1,561.57,319.53Zm-22.7-2.79a.45.45,0,0,1-.25-.07l-2.6-1.49a.5.5,0,1,1,.5-.86l2.6,1.49a.5.5,0,0,1-.25.93Zm-5.19-3a.59.59,0,0,1-.25-.07l-2.59-1.49a.51.51,0,0,1-.19-.69.5.5,0,0,1,.68-.18l2.6,1.49a.5.5,0,0,1,.18.68A.49.49,0,0,1,533.68,313.76Zm28.5-.16a.5.5,0,0,1-.5-.5v-3a.5.5,0,0,1,.5-.5.5.5,0,0,1,.5.5v3A.5.5,0,0,1,562.18,313.6Zm-33.69-2.83a.47.47,0,0,1-.25-.07l-2.59-1.49a.5.5,0,1,1,.49-.87l2.6,1.49a.51.51,0,0,1,.18.69A.5.5,0,0,1,528.49,310.77Zm-5.19-3a.57.57,0,0,1-.25-.06l-2.59-1.5a.5.5,0,1,1,.5-.86l2.59,1.49a.5.5,0,0,1-.25.93Zm38.88-.16a.5.5,0,0,1-.5-.5v-3a.5.5,0,0,1,.5-.5.51.51,0,0,1,.5.5v3A.51.51,0,0,1,562.18,307.62Zm-44.07-2.82a.59.59,0,0,1-.25-.07l-2.59-1.49a.52.52,0,0,1-.19-.69.51.51,0,0,1,.69-.18l2.59,1.49a.51.51,0,0,1,.19.68A.5.5,0,0,1,518.11,304.8Zm-5.19-3a.47.47,0,0,1-.25-.07l-2.59-1.49a.51.51,0,0,1-.19-.68.5.5,0,0,1,.69-.19l2.59,1.5a.5.5,0,0,1,.19.68A.51.51,0,0,1,512.92,301.81Zm49.26-.18a.5.5,0,0,1-.5-.5v-3a.5.5,0,0,1,.5-.5.5.5,0,0,1,.5.5v3A.5.5,0,0,1,562.18,301.63Zm-54.45-2.81a.57.57,0,0,1-.25-.06l-2.59-1.5a.5.5,0,0,1,.5-.86l2.59,1.49a.5.5,0,0,1,.19.68A.51.51,0,0,1,507.73,298.82Zm-5.19-3a.51.51,0,0,1-.24-.07l-2.6-1.49a.51.51,0,0,1-.18-.69.49.49,0,0,1,.68-.18l2.59,1.49a.5.5,0,0,1,.19.68A.49.49,0,0,1,502.54,295.84Zm59.64-.2a.5.5,0,0,1-.5-.5v-3a.5.5,0,0,1,.5-.5.5.5,0,0,1,.5.5v3A.5.5,0,0,1,562.18,295.64Zm-64.82-2.79a.43.43,0,0,1-.25-.07l-2.6-1.49a.5.5,0,0,1,.5-.87l2.59,1.5a.49.49,0,0,1,.19.68A.5.5,0,0,1,497.36,292.85Zm-5.19-3a.54.54,0,0,1-.25-.06l-1.67-1-.94-.58a.5.5,0,0,1,.55-.84c.3.2.59.38.89.55l1.67,1a.5.5,0,0,1,.18.68A.5.5,0,0,1,492.17,289.86Zm70-.2a.5.5,0,0,1-.5-.5v-3a.5.5,0,0,1,.5-.5.51.51,0,0,1,.5.5v3A.51.51,0,0,1,562.18,289.66Zm-75-3.14a.54.54,0,0,1-.33-.12,24.32,24.32,0,0,1-2.16-2.15.49.49,0,0,1,0-.7.5.5,0,0,1,.71,0,25.36,25.36,0,0,0,2.08,2.07.49.49,0,0,1,0,.7A.52.52,0,0,1,487.21,286.52Zm75-2.85a.5.5,0,0,1-.5-.5v-3a.5.5,0,0,1,.5-.5.51.51,0,0,1,.5.5v3A.51.51,0,0,1,562.18,283.67Zm-79-1.58a.49.49,0,0,1-.4-.2c-.59-.81-1.16-1.66-1.68-2.54a.51.51,0,0,1,.17-.69.51.51,0,0,1,.69.18c.5.85,1,1.68,1.62,2.46a.5.5,0,0,1-.1.7A.55.55,0,0,1,483.2,282.09Zm79-4.41a.5.5,0,0,1-.5-.5v-3a.5.5,0,0,1,.5-.5.5.5,0,0,1,.5.5v3A.5.5,0,0,1,562.18,277.68Zm-82-.73a.49.49,0,0,1-.45-.29,28.2,28.2,0,0,1-1.16-2.81.5.5,0,1,1,.94-.33c.32.9.7,1.82,1.12,2.72a.49.49,0,0,1-.24.66A.38.38,0,0,1,480.14,277Zm82-5.26a.5.5,0,0,1-.5-.5v-3a.5.5,0,0,1,.5-.5.5.5,0,0,1,.5.5v3A.5.5,0,0,1,562.18,271.69Zm-84-.38a.49.49,0,0,1-.49-.38,22,22,0,0,1-.49-3,.5.5,0,1,1,1-.09,23.62,23.62,0,0,0,.47,2.88.49.49,0,0,1-.37.6Zm84-5.6a.5.5,0,0,1-.5-.5v-3a.5.5,0,0,1,.5-.5.51.51,0,0,1,.5.5v3A.51.51,0,0,1,562.18,265.71Zm-84.59-.34a.5.5,0,0,1-.5-.5v-3a.5.5,0,0,1,.5-.5.5.5,0,0,1,.5.5v3A.5.5,0,0,1,477.59,265.37Zm84.59-5.65a.5.5,0,0,1-.5-.5v-3a.5.5,0,0,1,.5-.5.5.5,0,0,1,.5.5v3A.5.5,0,0,1,562.18,259.72Zm-84.59-.34a.5.5,0,0,1-.5-.5v-3a.5.5,0,0,1,.5-.5.5.5,0,0,1,.5.5v3A.5.5,0,0,1,477.59,259.38Zm84.59-5.65a.5.5,0,0,1-.5-.5v-3a.5.5,0,0,1,.5-.5.5.5,0,0,1,.5.5v3A.5.5,0,0,1,562.18,253.73Zm-84.59-.33a.51.51,0,0,1-.5-.5v-3a.51.51,0,0,1,.5-.5.5.5,0,0,1,.5.5v3A.5.5,0,0,1,477.59,253.4Zm84.59-5.66a.5.5,0,0,1-.5-.5v-3a.5.5,0,0,1,.5-.5.5.5,0,0,1,.5.5v3A.5.5,0,0,1,562.18,247.74Zm-84.59-.33a.51.51,0,0,1-.5-.5v-3a.51.51,0,0,1,.5-.5.5.5,0,0,1,.5.5v3A.5.5,0,0,1,477.59,247.41Zm84.59-5.65a.5.5,0,0,1-.5-.5v-3a.5.5,0,0,1,.5-.5.51.51,0,0,1,.5.5v3A.51.51,0,0,1,562.18,241.76Zm-84.59-.34a.5.5,0,0,1-.5-.5v-3a.5.5,0,0,1,.5-.5.5.5,0,0,1,.5.5v3A.5.5,0,0,1,477.59,241.42Zm84.59-5.65a.5.5,0,0,1-.5-.5v-3a.5.5,0,0,1,.5-.5.5.5,0,0,1,.5.5v3A.5.5,0,0,1,562.18,235.77Zm-84.59-.34a.5.5,0,0,1-.5-.5v-3a.5.5,0,0,1,.5-.5.5.5,0,0,1,.5.5v3A.5.5,0,0,1,477.59,235.43Zm84.59-5.65a.5.5,0,0,1-.5-.5V228c0-.54,0-1.1-.08-1.65a.51.51,0,0,1,.45-.55.52.52,0,0,1,.55.46c0,.58.08,1.16.08,1.74v1.29A.5.5,0,0,1,562.18,229.78Zm-84.59-.33a.51.51,0,0,1-.5-.5v-3a.51.51,0,0,1,.5-.5.5.5,0,0,1,.5.5v3A.5.5,0,0,1,477.59,229.45Zm84-5.61a.51.51,0,0,1-.49-.39,26.92,26.92,0,0,0-.82-2.82.5.5,0,1,1,.94-.33,25.51,25.51,0,0,1,.86,2.93.51.51,0,0,1-.38.6Zm-84-.38a.5.5,0,0,1-.5-.5v-3a.5.5,0,0,1,.5-.5.5.5,0,0,1,.5.5v3A.5.5,0,0,1,477.59,223.46Zm82.05-5.26a.49.49,0,0,1-.45-.29c-.42-.88-.88-1.75-1.38-2.6a.5.5,0,1,1,.86-.51c.51.87,1,1.78,1.42,2.69a.49.49,0,0,1-.24.66A.54.54,0,0,1,559.64,218.2Zm-82.05-.73a.5.5,0,0,1-.5-.5v-3a.5.5,0,0,1,.5-.5.5.5,0,0,1,.5.5v3A.5.5,0,0,1,477.59,217.47Zm79-4.42a.51.51,0,0,1-.41-.2,28,28,0,0,0-1.85-2.29.5.5,0,0,1,.74-.67,30,30,0,0,1,1.92,2.37.5.5,0,0,1-.11.7A.52.52,0,0,1,556.59,213.05Zm-79-1.57a.5.5,0,0,1-.5-.5v-3a.5.5,0,0,1,.5-.5.5.5,0,0,1,.5.5v3A.5.5,0,0,1,477.59,211.48Zm75-2.86a.5.5,0,0,1-.33-.12,20.51,20.51,0,0,0-2.32-1.78.51.51,0,0,1-.14-.7.5.5,0,0,1,.69-.14,21.62,21.62,0,0,1,2.43,1.87.48.48,0,0,1,0,.7A.5.5,0,0,1,552.58,208.62Zm-75-3.12a.51.51,0,0,1-.5-.5v-3a.51.51,0,0,1,.5-.5.5.5,0,0,1,.5.5v3A.5.5,0,0,1,477.59,205.5Zm70-.22a.45.45,0,0,1-.25-.07l-2.6-1.49a.51.51,0,0,1-.18-.69.49.49,0,0,1,.68-.18l2.6,1.49a.51.51,0,0,1,.18.69A.5.5,0,0,1,547.63,205.28Zm-5.19-3a.45.45,0,0,1-.25-.07l-2.59-1.49a.5.5,0,0,1-.19-.68.51.51,0,0,1,.68-.19l2.6,1.5a.5.5,0,0,1-.25.93Zm-64.85-2.78a.5.5,0,0,1-.5-.5v-3a.5.5,0,0,1,.5-.5.5.5,0,0,1,.5.5v3A.5.5,0,0,1,477.59,199.51Zm59.66-.21a.57.57,0,0,1-.25-.06l-2.59-1.5a.49.49,0,1,1,.49-.86l2.6,1.49a.5.5,0,0,1-.25.93Zm-5.19-3a.47.47,0,0,1-.25-.07l-2.59-1.49a.5.5,0,1,1,.5-.87l2.59,1.49a.51.51,0,0,1,.18.69A.5.5,0,0,1,532.06,196.32Zm-54.47-2.8a.5.5,0,0,1-.5-.5v-3a.5.5,0,0,1,.5-.5.5.5,0,0,1,.5.5v3A.5.5,0,0,1,477.59,193.52Zm49.28-.19a.47.47,0,0,1-.25-.07L524,191.77a.51.51,0,0,1-.19-.68.52.52,0,0,1,.69-.19l2.59,1.5a.5.5,0,0,1,.19.68A.51.51,0,0,1,526.87,193.33Zm-5.19-3a.57.57,0,0,1-.25-.06l-2.59-1.5a.5.5,0,1,1,.5-.86l2.59,1.49a.51.51,0,0,1,.19.68A.51.51,0,0,1,521.68,190.34Zm-44.09-2.8a.51.51,0,0,1-.5-.5v-3a.51.51,0,0,1,.5-.5.5.5,0,0,1,.5.5v3A.5.5,0,0,1,477.59,187.54Zm38.9-.18a.47.47,0,0,1-.25-.07l-2.59-1.49a.51.51,0,0,1-.18-.69.49.49,0,0,1,.68-.18l2.59,1.49a.52.52,0,0,1,.19.69A.51.51,0,0,1,516.49,187.36Zm-5.19-3a.47.47,0,0,1-.25-.07l-2.59-1.49a.49.49,0,0,1-.18-.68.5.5,0,0,1,.68-.19l2.59,1.5a.49.49,0,0,1,.19.68A.51.51,0,0,1,511.3,184.37Zm-33.71-2.82a.51.51,0,0,1-.5-.5v-1.8c0-.42,0-.83.05-1.23a.5.5,0,1,1,1,.07c0,.38,0,.76,0,1.16v1.8A.5.5,0,0,1,477.59,181.55Zm28.53-.17a.51.51,0,0,1-.25-.06l-2.6-1.5a.5.5,0,0,1,.5-.86l2.59,1.49a.5.5,0,0,1-.24.93Zm-5.19-3a.45.45,0,0,1-.25-.07l-2.6-1.49a.51.51,0,0,1-.18-.69.49.49,0,0,1,.68-.18l2.6,1.49a.51.51,0,0,1,.18.69A.5.5,0,0,1,500.93,178.4Zm-22.74-2.78a.39.39,0,0,1-.15,0,.49.49,0,0,1-.32-.63,8.74,8.74,0,0,1,1.48-2.79.49.49,0,0,1,.7-.07.48.48,0,0,1,.07.7,7.63,7.63,0,0,0-1.3,2.47A.5.5,0,0,1,478.19,175.62Zm17.55-.21a.45.45,0,0,1-.25-.07l-2.6-1.49a.49.49,0,0,1-.18-.68.51.51,0,0,1,.68-.19l2.6,1.5a.5.5,0,0,1-.25.93Zm-5.21-3a.49.49,0,0,1-.23-.06l-.05,0a14.18,14.18,0,0,0-2.63-1.2.5.5,0,0,1,.32-.95,15.45,15.45,0,0,1,2.81,1.28.53.53,0,0,1,.21.7A.52.52,0,0,1,490.53,172.42Zm-8.6-1.24a.52.52,0,0,1-.46-.29.5.5,0,0,1,.26-.66,7.32,7.32,0,0,1,3-.61h.15a.52.52,0,0,1,.49.51.5.5,0,0,1-.5.49h-.14a6.43,6.43,0,0,0-2.58.52A.45.45,0,0,1,481.93,171.18Z" transform="translate(-325.07 -79.16)"/><g class="cls-4"><path class="cls-5" d="M506.5,405.55a19.15,19.15,0,0,1-9.57-2.31l-97.41-57.47c-3.49-2-5.49-5.21-5.49-8.75,0-3.89,2.41-7.51,6.61-9.93l59.22-38.94a23.52,23.52,0,0,1,11.62-2.95,19.15,19.15,0,0,1,9.57,2.3l53.78,30.2,53.77,30.19c3.49,2,5.49,5.2,5.49,8.75,0,3.88-2.41,7.5-6.61,9.93l-69.36,36A23.52,23.52,0,0,1,506.5,405.55Z" transform="translate(-325.07 -79.16)"/><path class="cls-6" d="M457.15,290.33a24.07,24.07,0,0,1,9.32-2.9c.72-.07,1.45-.12,2.18-.13a19.06,19.06,0,0,1,9.49,2.14c.1,0,6,3.3,6.09,3.34l47.25,26.54,7.15,4,46.16,25.93a10.8,10.8,0,0,1,5.48,7.31,10.21,10.21,0,0,1,.12,1.24c.13,3.81-2.19,7.42-6.39,9.85l-15.61,8.09c-.21.12-30.16,15.53-30.35,15.42L516.4,401.91a23.28,23.28,0,0,1-11.29,2.68,19,19,0,0,1-9.3-2.3l-56.7-33.43-38.19-22.51c-3.32-1.92-5.43-5.07-5.43-8.45,0-3.7,2.06-7.28,6.06-9.59l35.54-24.41C436.9,303.79,456.93,290.45,457.15,290.33Z" transform="translate(-325.07 -79.16)"/><path class="cls-7" d="M454.44,292.5a25.45,25.45,0,0,1,9.23-2.93c.7-.07,1.42-.14,2.14-.16a19.17,19.17,0,0,1,9.43,2c.19,0,5.91,3.17,6.06,3.25L528.14,321l7.08,4L581,350.66c2.78,1.6,5.06,4.41,5.54,7.14a11.56,11.56,0,0,1,.16,1.2c.25,3.73-2,7.34-6.17,9.76l-15.19,7.87c-.43.25-29.22,14.89-29.59,14.68l-21,9.92c-3,1.72-7.18,2.41-11,2.41a18.88,18.88,0,0,1-9-2.3L439.5,368.83l-37.17-21.89c-3.16-1.83-5.38-4.94-5.38-8.15a10.51,10.51,0,0,1,5.51-9.25l32.87-23.71C435,305.62,454,292.75,454.44,292.5Z" transform="translate(-325.07 -79.16)"/><path class="cls-8" d="M451.73,294.68a26.8,26.8,0,0,1,9.13-3c.7-.08,1.4-.16,2.12-.19a19,19,0,0,1,9.35,1.79c.29,0,5.82,3,6,3.15l46.43,26.12,7,3.95L577.19,352c2.63,1.52,5.1,4.39,5.6,7,.07.38.16.77.2,1.17.38,3.66-1.76,7.26-6,9.68l-14.78,7.64c-.64.37-28.28,14.26-28.83,13.94L513,400.54c-2.83,1.63-7.05,2.15-10.64,2.15a18.75,18.75,0,0,1-8.77-2.3L439.89,368.8l-36.16-21.28c-3-1.73-5.32-4.81-5.31-7.84a9.92,9.92,0,0,1,5-8.92l30.19-23C433,307.45,451.09,295.05,451.73,294.68Z" transform="translate(-325.07 -79.16)"/><path class="cls-9" d="M449,296.85a28.77,28.77,0,0,1,9-3c.69-.08,1.39-.18,2.09-.23a19.17,19.17,0,0,1,9.28,1.62c.39,0,5.72,2.9,6,3.06l46,25.9,7,3.92,45,25.31c2.49,1.43,5.16,4.37,5.67,6.79.08.38.18.75.24,1.14.51,3.59-1.54,7.18-5.73,9.6l-14.36,7.41c-.86.5-27.34,13.63-28.08,13.2l-19.87,8.29c-2.67,1.54-6.92,1.87-10.31,1.87a18.73,18.73,0,0,1-8.5-2.29l-52.17-30.67L405.13,348.1c-2.82-1.63-5.25-4.67-5.25-7.54,0-3.14,1-6.61,4.41-8.57l27.52-22.28C431.07,309.28,448.17,297.35,449,296.85Z" transform="translate(-325.07 -79.16)"/><path class="cls-10" d="M446.31,299a30.78,30.78,0,0,1,8.93-3c.68-.09,1.37-.21,2.07-.26a19.08,19.08,0,0,1,9.2,1.44,66.6,66.6,0,0,1,6,3l45.61,25.68,6.91,3.88,44.57,25.1c2.33,1.35,5.2,4.35,5.73,6.62.09.37.21.73.28,1.11.64,3.51-1.32,7.1-5.51,9.51l-14,7.2c-1.07.61-26.39,13-27.32,12.46l-19.28,7.46c-2.51,1.46-6.79,1.61-10,1.61a18.69,18.69,0,0,1-8.23-2.29l-50.66-29.76-34.13-20c-2.65-1.54-5.19-4.54-5.19-7.24,0-3,.66-6.39,3.86-8.24l24.85-21.57C429.12,311.1,445.24,299.64,446.31,299Z" transform="translate(-325.07 -79.16)"/><path class="cls-11" d="M443.61,301.2a33,33,0,0,1,8.82-3.07c.68-.09,1.35-.23,2-.29a19,19,0,0,1,9.13,1.27,54.61,54.61,0,0,1,6,2.88l45.2,25.47,6.84,3.85,44.17,24.88c2.19,1.27,5.27,4.34,5.81,6.45.09.37.23.71.31,1.08.77,3.44-1.11,7-5.29,9.43l-13.53,7c-1.29.74-25.46,12.36-26.57,11.72l-18.68,6.65c-2.36,1.36-6.67,1.34-9.67,1.34a18.61,18.61,0,0,1-7.95-2.29L441.05,368.7l-33.11-19.43c-2.49-1.44-5.14-4.41-5.14-6.94,0-2.77.31-6.16,3.31-7.9l22.18-20.85C427.17,312.93,442.32,301.94,443.61,301.2Z" transform="translate(-325.07 -79.16)"/><path class="cls-12" d="M440.9,303.38a35.39,35.39,0,0,1,8.72-3.11c.67-.1,1.33-.25,2-.33a18.94,18.94,0,0,1,9.06,1.1c.7,0,5.43,2.5,5.93,2.79l44.8,25.25,6.77,3.82L562,357.58c2,1.18,5.32,4.31,5.87,6.28.1.35.25.68.35,1,.9,3.37-.89,6.93-5.07,9.35L550,381c-1.5.87-24.51,11.73-25.81,11l-18.09,5.84c-2.2,1.27-6.54,1.06-9.34,1.06a18.57,18.57,0,0,1-7.68-2.28l-47.64-27.92-32.1-18.81c-2.33-1.35-5.08-4.28-5.07-6.64,0-2.59,0-5.94,2.75-7.56l19.51-20.15C425.23,314.76,439.4,304.24,440.9,303.38Z" transform="translate(-325.07 -79.16)"/><path class="cls-13" d="M438.19,305.55a37.85,37.85,0,0,1,8.63-3.13c.65-.11,1.31-.28,2-.37a18.86,18.86,0,0,1,9,.93c.8,0,5.33,2.36,5.9,2.69l44.39,25,6.72,3.79L558.16,359c1.9,1.1,5.39,4.29,5.94,6.11.1.35.28.66.39,1,1,3.3-.67,6.85-4.85,9.26l-12.71,6.52c-1.71,1-23.56,11.1-25,10.24l-17.5,5c-2,1.18-6.41.8-9,.8a18.67,18.67,0,0,1-7.41-2.28l-46.13-27-31.09-18.2c-2.16-1.25-5-4.14-5-6.34,0-2.4-.4-5.72,2.21-7.22l16.83-19.43C423.28,316.59,436.47,306.54,438.19,305.55Z" transform="translate(-325.07 -79.16)"/><path class="cls-14" d="M435.48,307.73a41.52,41.52,0,0,1,8.53-3.17c.65-.12,1.29-.31,1.95-.4a18.91,18.91,0,0,1,8.91.75c.9,0,5.23,2.23,5.88,2.6l44,24.82,6.65,3.76,43,24.26c1.75,1,5.76,4.2,6,5.93a7.67,7.67,0,0,1,.43,1c1.17,3.23-.45,6.77-4.63,9.18l-12.29,6.29c-1.93,1.12-22.62,10.47-24.29,9.5l-16.92,4.21c-1.88,1.09-6.28.53-8.68.53-2.08,0-5.65-1.41-7.14-2.27l-44.62-26.1L412.15,351c-2-1.15-5-4-5-6,0-2.22-.74-5.5,1.66-6.88L423,319.38C421.34,318.42,433.55,308.84,435.48,307.73Z" transform="translate(-325.07 -79.16)"/><path class="cls-15" d="M432.77,309.9a46.19,46.19,0,0,1,8.43-3.2c.64-.12,1.27-.33,1.93-.44a19,19,0,0,1,8.84.59c1,0,5.12,2.09,5.84,2.5L501.38,334l6.6,3.72,42.57,24.05c1.61.93,5.85,4.17,6.07,5.76a7.61,7.61,0,0,1,.47.95c1.31,3.16-.24,6.69-4.4,9.1L540.8,383.6c-2.14,1.24-21.68,9.84-23.53,8.77L501,395.75c-1.73,1-6.16.26-8.36.26-1.91,0-5.5-1.47-6.87-2.26l-43.11-25.18-29.06-17c-1.83-1.06-4.9-3.88-4.9-5.74,0-2-1.09-5.27,1.11-6.54l11.49-18C419.39,320.25,430.63,311.14,432.77,309.9Z" transform="translate(-325.07 -79.16)"/><path class="cls-16" d="M430.06,312.08a51.42,51.42,0,0,1,8.33-3.24c.64-.13,1.25-.35,1.9-.47a18.91,18.91,0,0,1,8.77.41c1.09.06,5,2,5.82,2.42L498,335.59l6.53,3.69,42.18,23.83c1.46.85,5.94,4.15,6.14,5.59a8.09,8.09,0,0,1,.49.91c1.46,3.1,0,6.62-4.17,9l-11.47,5.84c-2.36,1.37-20.74,9.21-22.78,8l-15.73,2.57c-1.57.91-6,0-8,0-1.74,0-5.36-1.54-6.6-2.26L443,368.54l-28-16.35c-1.66-1-4.83-3.74-4.83-5.43,0-1.85-1.45-5.05.55-6.2l8.82-17.31C417.45,322.07,427.7,313.44,430.06,312.08Z" transform="translate(-325.07 -79.16)"/><path class="cls-17" d="M427.35,314.25a57.81,57.81,0,0,1,8.23-3.27c.63-.13,1.24-.37,1.88-.5a18.93,18.93,0,0,1,8.69.23c1.19.07,4.93,1.83,5.79,2.33l42.75,24.17,6.47,3.66L543,364.5c1.31.76,6,4.12,6.2,5.42a6.14,6.14,0,0,1,.53.87c1.6,3,.21,6.54-3.95,8.94l-11.06,5.62c-2.57,1.48-19.79,8.57-22,7.28l-15.14,1.76c-1.41.81-5.9-.28-7.7-.28-1.56,0-5.21-1.62-6.33-2.26l-40.1-23.34-27-15.73c-1.5-.87-4.78-3.62-4.78-5.13,0-1.67-1.8-4.83,0-5.87l6.15-16.59C415.5,323.9,424.78,315.74,427.35,314.25Z" transform="translate(-325.07 -79.16)"/><path class="cls-18" d="M424.64,316.43a65.05,65.05,0,0,1,8.14-3.31c.61-.14,1.21-.39,1.84-.54a19,19,0,0,1,8.62.07c1.29.07,4.83,1.69,5.76,2.23l42.35,24,6.41,3.63,41.38,23.41c1.17.68,6.11,4.09,6.27,5.25a7.32,7.32,0,0,1,.57.84c1.74,2.95.43,6.46-3.73,8.86l-10.65,5.39c-2.78,1.61-18.85,7.94-21.26,6.54l-14.55.94c-1.25.73-5.77-.55-7.37-.55-1.39,0-5.07-1.68-6.06-2.25l-38.59-22.43-26-15.11c-1.33-.77-4.72-3.48-4.72-4.83s-2.14-4.6-.54-5.53L416,327.12C413.55,325.73,421.86,318,424.64,316.43Z" transform="translate(-325.07 -79.16)"/><path class="cls-19" d="M421.94,318.6a75.59,75.59,0,0,1,8-3.34c.61-.14,1.19-.41,1.82-.57a18.84,18.84,0,0,1,8.54-.11,21.23,21.23,0,0,1,5.74,2.14L488,340.47l6.34,3.59,41,23.21c1,.59,6.19,4.06,6.33,5.07a7.46,7.46,0,0,1,.61.81c1.88,2.88.64,6.38-3.51,8.77l-10.23,5.17c-3,1.73-17.91,7.3-20.51,5.8l-13.95.13c-1.1.63-5.65-.82-7.05-.82-1.22,0-4.92-1.75-5.79-2.25l-37.08-21.51-25-14.5c-1.16-.67-4.66-3.34-4.66-4.52s-2.49-4.38-1.09-5.19l.8-15.17C411.61,327.56,418.94,320.33,421.94,318.6Z" transform="translate(-325.07 -79.16)"/><path class="cls-20" d="M419.23,320.78c.77-.45,7-3.15,7.93-3.38.6-.15,1.18-.44,1.79-.6a18.73,18.73,0,0,1,8.47-.28,19.34,19.34,0,0,1,5.71,2l41.53,23.53,6.29,3.56,40.58,23c.88.51,6.28,4,6.4,4.9a6.55,6.55,0,0,1,.65.78c2,2.8.86,6.29-3.29,8.69L525.47,388c-3.21,1.86-17,6.67-19.75,5.07l-13.36-.7c-.94.55-5.52-1.08-6.72-1.08-1,0-4.78-1.82-5.52-2.25l-35.57-20.59-24-13.88c-1-.58-4.6-3.22-4.6-4.23s-2.85-4.15-1.65-4.85L412.45,331C409.66,329.39,416,322.63,419.23,320.78Z" transform="translate(-325.07 -79.16)"/><path class="cls-21" d="M416.52,323c.65-.37,7-3.21,7.83-3.41.6-.15,1.16-.46,1.77-.63a18.72,18.72,0,0,1,8.39-.46,18.13,18.13,0,0,1,5.69,1.95l41.12,23.32,6.22,3.53L527.73,370c.73.43,6.37,4,6.47,4.73a7.81,7.81,0,0,1,.68.75c2.17,2.72,1.08,6.21-3.07,8.61l-9.4,4.71c-3.43,2-16,6-19,4.33l-12.78-1.51c-.79.45-5.39-1.36-6.39-1.36s-4.63-1.88-5.25-2.24l-34.06-19.67-23-13.27c-.83-.48-4.54-3.08-4.54-3.92s-3.2-3.94-2.2-4.51l-4.55-13.75C407.72,331.22,413.09,324.93,416.52,323Z" transform="translate(-325.07 -79.16)"/><path class="cls-22" d="M413.81,325.13c.52-.3,7.1-3.28,7.73-3.45s1.14-.48,1.74-.67a18.73,18.73,0,0,1,8.32-.62,16.62,16.62,0,0,1,5.66,1.85L478,345.35l6.16,3.49,39.79,22.58c.59.33,6.46,4,6.54,4.56a6.05,6.05,0,0,1,.72.71c2.32,2.64,1.29,6.13-2.85,8.52l-9,4.49c-3.64,2.11-15.08,5.41-18.23,3.59L488.92,391c-.63.36-5.26-1.63-6.06-1.63s-4.49-1.95-5-2.24l-32.55-18.76L423.37,355.7c-.66-.39-4.48-2.95-4.48-3.63s-3.55-3.71-2.75-4.17l-7.22-13C405.77,333,410.17,327.23,413.81,325.13Z" transform="translate(-325.07 -79.16)"/><path class="cls-23" d="M411.1,327.3c.39-.22,7.15-3.44,7.64-3.48a14.55,14.55,0,0,1,1.71-.7,18.73,18.73,0,0,1,8.25-.8,15.4,15.4,0,0,1,5.62,1.77L474.63,347l6.1,3.47,39.39,22.36c.44.25,6.54,3.95,6.6,4.39a8.5,8.5,0,0,1,.76.68c2.47,2.56,1.51,6.05-2.63,8.44l-8.58,4.26c-3.85,2.23-14.13,4.78-17.47,2.85l-11.59-3.14c-.48.28-5.14-1.9-5.74-1.9a35.16,35.16,0,0,1-4.72-2.23l-31-17.84-20.93-12c-.5-.29-4.43-2.81-4.43-3.32s-3.89-3.49-3.29-3.83l-9.9-12.33C403.82,334.87,407.24,329.53,411.1,327.3Z" transform="translate(-325.07 -79.16)"/><path class="cls-24" d="M408.39,329.48c.26-.15,7.21-3.49,7.54-3.52a14.93,14.93,0,0,1,1.68-.73,18.74,18.74,0,0,1,8.18-1,14.58,14.58,0,0,1,5.6,1.68l39.9,22.67,6,3.43,39,22.16c.3.16,6.63,3.92,6.67,4.21a7.77,7.77,0,0,1,.8.65c2.62,2.48,1.73,6-2.41,8.36l-8.16,4c-4.07,2.35-13.19,4.14-16.72,2.11l-11-4c-.32.18-5-2.17-5.41-2.17a46.19,46.19,0,0,1-4.45-2.23L446.1,368.28l-19.92-11.42c-.33-.19-4.36-2.68-4.36-3s-4.25-3.26-3.85-3.49L405.4,338.74C401.88,336.7,404.32,331.83,408.39,329.48Z" transform="translate(-325.07 -79.16)"/><path class="cls-25" d="M405.68,331.65c.13-.07,7.28-3.53,7.44-3.55a14.8,14.8,0,0,1,1.66-.77,18.82,18.82,0,0,1,8.1-1.14,13.59,13.59,0,0,1,5.57,1.58l39.49,22.46,6,3.39,38.59,21.95c.15.08,6.71,3.9,6.73,4a8.32,8.32,0,0,1,.84.62c2.77,2.39,1.95,5.89-2.19,8.28l-7.75,3.81c-4.28,2.47-12.25,3.51-16,1.37l-10.41-4.77c-.16.09-4.88-2.44-5.08-2.44s-4.05-2.16-4.18-2.23l-28-16-18.91-10.8c-.16-.1-4.3-2.55-4.3-2.72s-4.6-3-4.4-3.16l-15.24-10.9C399.93,338.53,401.4,334.13,405.68,331.65Z" transform="translate(-325.07 -79.16)"/><path class="cls-26" d="M491.87,393.82l-45-25.61-45-25.6c-3.89-2.25-3.41-6.18,1.09-8.78l7.34-3.59c4.5-2.6,11.31-2.88,15.21-.63l45,25.61,45,25.6c3.89,2.25,3.4,6.18-1.1,8.78l-7.33,3.59C502.58,395.79,495.77,396.07,491.87,393.82Z" transform="translate(-325.07 -79.16)"/></g><path class="cls-27" d="M495.77,388l-79.52-45.91c-9-5.18-16.24-19.08-16.24-31V99.24c0-6.09-5-7.43-2-9.61.11-.09,12.13-5.48,12.26-5.53,3.26-1.25,6.75-1.8,11,.64l79.52,45.91c9,5.18,16.24,19.08,16.24,31V373.46c0,6.36-2,10.89-5.32,13-.2.12-13.65,6.34-13.86,6.41C495,393.8,499.69,390.22,495.77,388Z" transform="translate(-325.07 -79.16)"/><path class="cls-28" d="M495.77,388l-79.52-45.91c-9-5.18-16.24-19.08-16.24-31V99.24c0-6.09-5-7.43-2-9.61.11-.09,11.94-5.4,12.07-5.46,3.26-1.24,6.74-1.8,11,.64l79.52,45.92c9,5.18,16.24,19.07,16.24,31V373.54c0,6.35-2.05,10.88-5.32,12.95-.19.13-13.45,6.27-13.66,6.34C495,393.8,499.69,390.22,495.77,388Z" transform="translate(-325.07 -79.16)"/><path class="cls-29" d="M495.77,388l-79.52-45.91c-9-5.18-16.24-19.08-16.24-31V99.24c0-6.09-5-7.43-2-9.61.11-.09,11.74-5.33,11.87-5.38,3.26-1.25,6.75-1.81,11,.64l79.52,45.91c9,5.18,16.25,19.07,16.25,31V373.61c0,6.35-2.06,10.88-5.33,13-.19.12-13.25,6.19-13.46,6.26C495,393.8,499.69,390.22,495.77,388Z" transform="translate(-325.07 -79.16)"/><path class="cls-30" d="M495.77,388l-79.52-45.91c-9-5.18-16.24-19.08-16.24-31V99.24c0-6.09-5-7.43-2-9.61.11-.09,11.54-5.26,11.68-5.31,3.25-1.25,6.74-1.81,11,.64l79.52,45.91c9,5.18,16.24,19.07,16.24,31V373.68c0,6.36-2.05,10.89-5.32,13-.2.12-13.06,6.12-13.27,6.19C495,393.8,499.69,390.22,495.77,388Z" transform="translate(-325.07 -79.16)"/><path class="cls-31" d="M495.77,388l-79.52-45.91c-9-5.18-16.24-19.08-16.24-31V99.24c0-6.09-5-7.43-2-9.61.11-.09,11.35-5.19,11.48-5.24,3.26-1.25,6.75-1.8,11,.64L500,130.94c9,5.18,16.24,19.08,16.24,31V373.75c0,6.36-2,10.89-5.32,13-.19.13-12.86,6.05-13.07,6.12C495,393.8,499.69,390.22,495.77,388Z" transform="translate(-325.07 -79.16)"/><path class="cls-32" d="M495.77,388l-79.52-45.91c-9-5.18-16.24-19.08-16.24-31V99.24c0-6.09-5-7.43-2-9.61.11-.09,11.15-5.11,11.28-5.16,3.26-1.25,6.75-1.81,11,.64L499.83,131c9,5.18,16.24,19.07,16.24,31V373.83c0,6.35-2.05,10.88-5.32,12.95-.2.13-12.67,6-12.88,6.05C495,393.8,499.69,390.22,495.77,388Z" transform="translate(-325.07 -79.16)"/><path class="cls-33" d="M495.77,388l-79.52-45.91c-9-5.18-16.24-19.08-16.24-31V99.24c0-6.09-5-7.43-2-9.61.11-.09,11-5,11.09-5.09,3.26-1.25,6.74-1.81,11,.64l79.52,45.91c9,5.18,16.24,19.07,16.24,31V373.9c0,6.35-2,10.88-5.32,13-.19.12-12.47,5.9-12.68,6C495,393.8,499.69,390.22,495.77,388Z" transform="translate(-325.07 -79.16)"/><path class="cls-34" d="M495.77,388l-79.52-45.91c-9-5.18-16.24-19.08-16.24-31V99.24c0-6.09-5-7.43-2-9.61.11-.09,10.76-5,10.89-5,3.26-1.25,6.75-1.8,11,.64l79.52,45.91c9,5.18,16.25,19.08,16.25,31V374c0,6.36-2.06,10.89-5.33,13-.19.12-12.27,5.83-12.48,5.9C495,393.8,499.69,390.22,495.77,388Z" transform="translate(-325.07 -79.16)"/><path class="cls-35" d="M495.77,388l-79.52-45.91c-9-5.18-16.24-19.08-16.24-31V99.24c0-6.09-5-7.43-2-9.61.11-.09,10.56-4.9,10.69-4.95,3.26-1.25,6.75-1.8,11,.64l79.52,45.91c9,5.18,16.24,19.08,16.24,31V374c0,6.36-2.05,10.89-5.32,13-.2.13-12.08,5.76-12.29,5.83C495,393.8,499.69,390.22,495.77,388Z" transform="translate(-325.07 -79.16)"/><path class="cls-36" d="M495.77,388l-79.52-45.91c-9-5.18-16.24-19.08-16.24-31V99.24c0-6.09-5-7.43-2-9.61.11-.09,10.37-4.82,10.5-4.87,3.26-1.25,6.75-1.81,11,.64L499,131.31c9,5.18,16.24,19.07,16.24,31V374.12c0,6.35-2,10.88-5.32,13-.19.12-11.88,5.68-12.09,5.75C495,393.8,499.69,390.22,495.77,388Z" transform="translate(-325.07 -79.16)"/><path class="cls-37" d="M495.77,388l-79.52-45.91c-9-5.18-16.24-19.08-16.24-31V99.24c0-6.09-5-7.43-2-9.61.11-.09,10.17-4.75,10.3-4.8,3.26-1.25,6.75-1.81,11,.64l79.52,45.91c9,5.18,16.24,19.07,16.24,31V374.19c0,6.35-2.05,10.88-5.32,13-.2.12-11.69,5.61-11.9,5.68C495,393.8,499.69,390.22,495.77,388Z" transform="translate(-325.07 -79.16)"/><path class="cls-38" d="M495.77,388l-79.52-45.91c-9-5.18-16.24-19.08-16.24-31V99.24c0-6.09-5-7.43-2-9.61.11-.09,10-4.68,10.11-4.73,3.26-1.25,6.74-1.8,11,.64l79.52,45.91c9,5.18,16.24,19.08,16.24,31V374.26c0,6.36-2,10.89-5.32,13-.19.12-11.49,5.54-11.7,5.61C495,393.8,499.69,390.22,495.77,388Z" transform="translate(-325.07 -79.16)"/><path class="cls-39" d="M495.77,388l-79.52-45.91c-9-5.18-16.24-19.08-16.24-31V99.24c0-6.09-5-7.43-2-9.61.11-.09,9.78-4.61,9.91-4.66,3.26-1.24,6.75-1.8,11,.64l79.52,45.92c9,5.17,16.25,19.07,16.25,31V374.33c0,6.36-2.06,10.89-5.33,13-.19.13-11.29,5.47-11.5,5.54C495,393.8,499.69,390.22,495.77,388Z" transform="translate(-325.07 -79.16)"/><path class="cls-40" d="M495.77,388l-79.52-45.91c-9-5.18-16.24-19.08-16.24-31V99.24c0-6.09-5-7.43-2-9.61.11-.09,9.58-4.53,9.71-4.58,3.26-1.25,6.75-1.81,11,.64l79.52,45.91c9,5.18,16.24,19.07,16.24,31V374.41c0,6.35-2,10.88-5.32,13-.2.12-11.1,5.39-11.31,5.46C495,393.8,499.69,390.22,495.77,388Z" transform="translate(-325.07 -79.16)"/><path class="cls-41" d="M495.77,388l-79.52-45.91c-9-5.18-16.24-19.08-16.24-31V99.24c0-6.09-5-7.43-2-9.61.11-.09,9.39-4.46,9.52-4.51,3.26-1.25,6.75-1.81,11,.64l79.52,45.91c9,5.18,16.24,19.07,16.24,31V374.48c0,6.36-2,10.89-5.32,13-.19.12-10.9,5.32-11.11,5.39C495,393.8,499.69,390.22,495.77,388Z" transform="translate(-325.07 -79.16)"/><path class="cls-42" d="M495.77,388l-79.52-45.91c-9-5.18-16.24-19.08-16.24-31V99.24c0-6.09-5-7.43-2-9.61.11-.09,9.19-4.39,9.32-4.44,3.26-1.25,6.75-1.8,11,.64l79.52,45.91c9,5.18,16.24,19.08,16.24,31V374.55c0,6.36-2.05,10.89-5.32,13-.2.12-10.71,5.25-10.92,5.32C495,393.8,499.69,390.22,495.77,388Z" transform="translate(-325.07 -79.16)"/><path class="cls-43" d="M495.77,388l-79.52-45.91c-9-5.18-16.24-19.08-16.24-31V99.24c0-6.09-5-7.43-2-9.61.11-.09,9-4.31,9.13-4.37,3.26-1.24,6.74-1.8,11,.64l79.52,45.92c9,5.18,16.24,19.07,16.24,31V374.63c0,6.35-2,10.88-5.32,12.95-.19.13-10.51,5.18-10.72,5.25C495,393.8,499.69,390.22,495.77,388Z" transform="translate(-325.07 -79.16)"/><path class="cls-44" d="M495.77,388l-79.52-45.91c-9-5.18-16.24-19.08-16.24-31V99.24c0-6.09-5-7.43-2-9.61.11-.09,8.8-4.24,8.93-4.29,3.26-1.25,6.75-1.81,11,.64l79.52,45.91c9,5.18,16.25,19.07,16.25,31V374.7c0,6.35-2.06,10.88-5.33,13-.19.12-10.31,5.1-10.52,5.17C495,393.8,499.69,390.22,495.77,388Z" transform="translate(-325.07 -79.16)"/><path class="cls-45" d="M495.77,388l-79.52-45.91c-9-5.18-16.24-19.08-16.24-31V99.24c0-6.09-5-7.43-2-9.61.11-.09,8.6-4.17,8.73-4.22,3.26-1.25,6.75-1.81,11,.64L497.28,132c9,5.18,16.24,19.07,16.24,31V374.77c0,6.36-2,10.89-5.32,13-.2.12-10.12,5-10.33,5.1C495,393.8,499.69,390.22,495.77,388Z" transform="translate(-325.07 -79.16)"/><path class="cls-46" d="M495.77,388l-79.52-45.91c-9-5.18-16.24-19.08-16.24-31V99.24c0-6.09-5-7.43-2-9.61.11-.09,8.41-4.1,8.54-4.15,3.26-1.25,6.75-1.8,11,.64L497.08,132c9,5.18,16.24,19.08,16.24,31V374.84c0,6.36-2.05,10.89-5.32,13-.19.13-9.92,5-10.13,5C495,393.8,499.69,390.22,495.77,388Z" transform="translate(-325.07 -79.16)"/><path class="cls-47" d="M495.77,388l-79.52-45.91c-9-5.18-16.24-19.08-16.24-31V99.24c0-6.09-5-7.43-2-9.61.11-.09,8.21-4,8.34-4.07,3.26-1.25,6.75-1.81,11,.64l79.53,45.91c9,5.18,16.24,19.07,16.24,31V374.92c0,6.35-2.05,10.88-5.32,13-.2.12-9.73,4.88-9.94,4.95C495,393.8,499.69,390.22,495.77,388Z" transform="translate(-325.07 -79.16)"/><path class="cls-48" d="M495.77,388l-79.52-45.91c-9-5.18-16.24-19.08-16.24-31V99.24c0-6.09-5-7.43-2-9.61.11-.09,8-3.95,8.15-4,3.26-1.25,6.74-1.81,11,.64l79.52,45.91c9,5.18,16.24,19.07,16.24,31V375c0,6.35-2,10.88-5.32,13-.19.12-9.53,4.81-9.74,4.88C495,393.8,499.69,390.22,495.77,388Z" transform="translate(-325.07 -79.16)"/><path class="cls-49" d="M488.18,391.55l-79.52-45.91c-9-5.18-16.24-19.08-16.24-31V102.83c0-12,7.27-17.46,16.24-12.28l79.52,45.91c9,5.18,16.24,19.07,16.24,31V379.27C504.42,391.23,497.15,396.73,488.18,391.55Z" transform="translate(-325.07 -79.16)"/><path class="cls-50" d="M494.63,391.89a11.49,11.49,0,0,1-5.65-1.74l-79.52-45.91C401,339.33,394,326,394,314.6V102.83c0-7.67,3.22-12.62,8.19-12.62a11.41,11.41,0,0,1,5.64,1.73l79.53,45.91c8.51,4.92,15.43,18.21,15.43,29.64V379.27C502.81,386.93,499.6,391.89,494.63,391.89Z" transform="translate(-325.07 -79.16)"/><path class="cls-27" d="M397.79,317.3v-211c0-8.78,5.34-12.81,11.92-9L487.12,142c6.59,3.8,11.92,14,11.92,22.77v211c0,8.77-5.33,12.81-11.92,9l-77.41-44.7C403.13,336.27,397.79,326.08,397.79,317.3Z" transform="translate(-325.07 -79.16)"/><path class="cls-51" d="M410.61,99.66c-6.21-3.58-11.23-.71-11.23,6.41V319.4c0,7.12,5,15.79,11.23,19.37l75.62,43.66c6.2,3.58,11.23.72,11.23-6.4V162.69c0-7.11-5-15.79-11.23-19.37Z" transform="translate(-325.07 -79.16)"/><path class="cls-52" d="M510.52,237.09h0c-2.28,1.32-4.13-.08-4.13-3.12V216.74c0-3.05,1.85-6.58,4.13-7.9h0c2.28-1.32,4.13.08,4.13,3.13V229.2C514.65,232.24,512.8,235.77,510.52,237.09Z" transform="translate(-325.07 -79.16)"/><path class="cls-49" d="M477.51,150.6,488,156.66c.4.23.73,0,.73-.42A1.58,1.58,0,0,0,488,155l-10.49-6.06c-.4-.23-.72-.05-.72.41A1.59,1.59,0,0,0,477.51,150.6ZM488,158.73l-10.49-6.06c-.4-.23-.72,0-.72.42a1.57,1.57,0,0,0,.72,1.24L488,160.39c.4.23.73.05.73-.41A1.6,1.6,0,0,0,488,158.73Zm0,3.74-10.49-6.06c-.4-.23-.72,0-.72.41a1.59,1.59,0,0,0,.72,1.25L488,164.13c.4.23.73.05.73-.41A1.6,1.6,0,0,0,488,162.47Z" transform="translate(-325.07 -79.16)"/><path class="cls-49" d="M421.64,120.16c0,1.1-.78,1.55-1.75,1a3.88,3.88,0,0,1-1.75-3c0-1.11.79-1.56,1.75-1A3.85,3.85,0,0,1,421.64,120.16Z" transform="translate(-325.07 -79.16)"/><path class="cls-49" d="M416.37,117.09c0,1.11-.79,1.56-1.75,1a3.85,3.85,0,0,1-1.75-3c0-1.11.78-1.56,1.75-1A3.88,3.88,0,0,1,416.37,117.09Z" transform="translate(-325.07 -79.16)"/><path class="cls-49" d="M411.1,114c0,1.11-.79,1.55-1.75,1a3.85,3.85,0,0,1-1.75-3c0-1.1.78-1.55,1.75-1A3.84,3.84,0,0,1,411.1,114Z" transform="translate(-325.07 -79.16)"/><path class="cls-53" d="M482.2,341.11h0a12.2,12.2,0,0,1-6-1.84l-58.77-33.82c-7.26-4.19-13.16-14.38-13.16-22.7V149.28c0-5.85,3-9.63,7.61-9.63a12.24,12.24,0,0,1,6.05,1.84l58.77,33.82c7.25,4.19,13.16,14.38,13.16,22.7V331.48a11.18,11.18,0,0,1-2.09,7A6.84,6.84,0,0,1,482.2,341.11ZM411.84,140.65c-4.08,0-6.61,3.31-6.61,8.63V282.75c0,8,5.68,17.8,12.66,21.83l58.77,33.83a11.43,11.43,0,0,0,5.54,1.7h0A5.86,5.86,0,0,0,487,337.9a10.17,10.17,0,0,0,1.87-6.42V198c0-8-5.68-17.8-12.66-21.83l-58.77-33.83A11.25,11.25,0,0,0,411.84,140.65Z" transform="translate(-325.07 -79.16)"/><g class="cls-54"><path class="cls-55" d="M380.29,106.52c-7.9-4.56-14.29-.91-14.29,8.15V268.24c0,9.05,6.39,20.09,14.29,24.64l73.77,42.38c7.89,4.56,17.45.41,17.45-8.64V173.05c0-9.06-9.56-19.59-17.45-24.15Z" transform="translate(-325.07 -79.16)"/><path class="cls-56" d="M380.11,106.78c-7.88-4.55-14.27-.91-14.27,8.13v153c0,9,6.39,20.07,14.27,24.62l73.54,42.24c7.88,4.55,17.15.45,17.15-8.59v-153c0-9-9.27-19.61-17.15-24.16Z" transform="translate(-325.07 -79.16)"/><path class="cls-57" d="M379.94,107c-7.87-4.54-14.25-.9-14.25,8.13V267.52c0,9,6.38,20,14.25,24.59l73.3,42.11c7.88,4.54,16.85.49,16.85-8.54V173.32c0-9-9-19.63-16.85-24.18Z" transform="translate(-325.07 -79.16)"/><path class="cls-58" d="M379.77,107.29c-7.87-4.54-14.24-.91-14.24,8.12V267.16c0,9,6.37,20,14.24,24.56l73.07,42c7.86,4.54,16.53.54,16.53-8.48V173.45c0-9-8.67-19.65-16.53-24.19Z" transform="translate(-325.07 -79.16)"/><path class="cls-59" d="M379.59,107.55c-7.85-4.54-14.21-.91-14.21,8.1V266.81c0,9,6.36,20,14.21,24.52l72.84,41.84c7.85,4.53,16.23.59,16.23-8.43V173.59c0-9-8.38-19.67-16.23-24.21Z" transform="translate(-325.07 -79.16)"/><path class="cls-60" d="M379.42,107.8c-7.84-4.53-14.2-.9-14.2,8.1V266.45c0,9,6.36,20,14.2,24.49L452,332.65c7.85,4.52,15.93.63,15.93-8.37V173.72c0-9-8.08-19.69-15.93-24.22Z" transform="translate(-325.07 -79.16)"/><path class="cls-61" d="M379.25,108.06c-7.83-4.53-14.18-.9-14.18,8.08v150c0,9,6.35,19.94,14.18,24.47l72.37,41.56c7.83,4.52,15.62.68,15.62-8.31V173.86c0-9-7.79-19.71-15.62-24.24Z" transform="translate(-325.07 -79.16)"/><path class="cls-62" d="M379.08,108.31c-7.83-4.51-14.17-.9-14.17,8.08V265.74c0,9,6.34,19.91,14.17,24.43l72.13,41.43c7.82,4.51,15.31.72,15.31-8.26V174c0-9-7.49-19.73-15.31-24.25Z" transform="translate(-325.07 -79.16)"/><path class="cls-63" d="M378.9,108.57c-7.81-4.51-14.14-.9-14.14,8.07V265.38c0,9,6.33,19.89,14.14,24.4l71.9,41.29c7.81,4.52,15,.77,15-8.2V174.13c0-9-7.2-19.75-15-24.27Z" transform="translate(-325.07 -79.16)"/><path class="cls-64" d="M378.73,108.83c-7.8-4.51-14.13-.9-14.13,8V265c0,9,6.33,19.87,14.13,24.37l71.66,41.16c7.81,4.51,14.71.81,14.71-8.15V174.26c0-8.95-6.9-19.77-14.71-24.28Z" transform="translate(-325.07 -79.16)"/><path class="cls-65" d="M378.56,109.08c-7.8-4.5-14.11-.9-14.11,8V264.66c0,8.95,6.31,19.84,14.11,24.34L450,330c7.79,4.5,14.4.85,14.4-8.09V174.4c0-8.94-6.61-19.8-14.4-24.29Z" transform="translate(-325.07 -79.16)"/><path class="cls-26" d="M378.38,109.34c-7.78-4.5-14.09-.9-14.09,8V264.31c0,8.93,6.31,19.81,14.09,24.31l71.2,40.88c7.78,4.5,14.09.9,14.09-8V174.53c0-8.93-6.31-19.81-14.09-24.3Z" transform="translate(-325.07 -79.16)"/></g><path class="cls-66" d="M463.65,173.63c0-9-6.33-19.88-14.14-24.39L378,108.16c-7.81-4.51-14.14-.9-14.14,8.06V225.73l99.81,57.36Z" transform="translate(-325.07 -79.16)"/><path class="cls-67" d="M378,295.56l71.53,41.08c7.81,4.51,14.14.9,14.14-8.06V283.09l-99.81-57.36v45.44C363.84,280.13,370.17,291.05,378,295.56Z" transform="translate(-325.07 -79.16)"/><path class="cls-68" d="M378,295.56l71.53,41.08c7.81,4.51,14.14.9,14.14-8.06V283.09l-99.81-57.36v45.44C363.84,280.13,370.17,291.05,378,295.56Z" transform="translate(-325.07 -79.16)"/><path class="cls-69" d="M449.51,149.24,378,108.16c-7.81-4.51-14.14-.9-14.14,8.06v1.37c0-9,6.33-12.57,14.14-8.06l71.53,41.07c7.81,4.51,14.14,15.43,14.14,24.4v-1.37C463.65,164.67,457.32,153.75,449.51,149.24Z" transform="translate(-325.07 -79.16)"/><ellipse class="cls-70" cx="88.39" cy="216.19" rx="14.71" ry="33.68"/><ellipse class="cls-49" cx="339.55" cy="213.01" rx="11.37" ry="19.7" transform="translate(-386.16 121.32) rotate(-30.31)"/><path class="cls-71" d="M345.82,231.46a13.13,13.13,0,0,1-6.52-2c-7.85-4.52-14.23-15.53-14.23-24.53,0-6.3,3.22-10.38,8.2-10.38a13.19,13.19,0,0,1,6.53,2c7.84,4.52,14.22,15.53,14.22,24.53C354,227.38,350.8,231.46,345.82,231.46Zm-12.55-35.9c-4.44,0-7.2,3.6-7.2,9.38,0,8.68,6.16,19.3,13.73,23.67a12.14,12.14,0,0,0,6,1.85c4.44,0,7.2-3.6,7.2-9.38,0-8.68-6.16-19.3-13.72-23.67A12.2,12.2,0,0,0,333.27,195.56Z" transform="translate(-325.07 -79.16)"/><ellipse class="cls-49" cx="561.26" cy="239.95" rx="11.37" ry="19.7" transform="translate(-369.45 236.9) rotate(-30.31)"/><path class="cls-72" d="M567.53,258.4a13.24,13.24,0,0,1-6.52-2c-7.84-4.53-14.22-15.54-14.22-24.53,0-6.31,3.22-10.39,8.2-10.39a13.13,13.13,0,0,1,6.52,2C569.35,228,575.73,239,575.73,248,575.73,254.33,572.51,258.4,567.53,258.4ZM555,222.5c-4.44,0-7.2,3.6-7.2,9.39,0,8.68,6.16,19.29,13.72,23.66a12.2,12.2,0,0,0,6,1.85c4.44,0,7.2-3.59,7.2-9.38,0-8.68-6.15-19.3-13.72-23.67A12.27,12.27,0,0,0,555,222.5Z" transform="translate(-325.07 -79.16)"/><path class="cls-73" d="M569.39,241.51l-4.72-2.73v-5.41a1.67,1.67,0,0,0-.75-1.3l-4.3-2.48c-.42-.24-.75-.05-.75.43v5.41l-4.72-2.72c-.42-.24-.75-.05-.75.43v4.93a1.66,1.66,0,0,0,.75,1.3l4.72,2.72v5.41a1.64,1.64,0,0,0,.75,1.3l4.3,2.48c.41.24.75.05.75-.43v-5.41l4.72,2.72c.41.24.75.05.75-.43V242.8A1.67,1.67,0,0,0,569.39,241.51Z" transform="translate(-325.07 -79.16)"/><path class="cls-74" d="M347.3,216.77l-9.86-13.65c-.88-1.23-2.11-1.21-2.11,0v15.93c0,1.24,1.23,2.68,2.11,2.47l9.86-2.27C348.05,219.1,348.05,217.82,347.3,216.77Z" transform="translate(-325.07 -79.16)"/><path class="cls-75" d="M413.33,241.11c-22.32-12.89-40.49-44.22-40.49-69.84s18.17-36,40.49-23.08,40.49,44.22,40.49,69.84S435.66,254,413.33,241.11Zm0-90.1c-21-12.11-38-2.38-38,21.68s17.06,53.5,38,65.6,38,2.38,38-21.68S434.3,163.12,413.33,151Z" transform="translate(-325.07 -79.16)"/><path class="cls-75" d="M413.33,234.67c-19.23-11.1-34.88-38.09-34.88-60.16s15.65-31,34.88-19.88,34.88,38.09,34.88,60.16S432.57,245.78,413.33,234.67Zm0-77.23c-17.88-10.32-32.42-2-32.42,18.49s14.54,45.6,32.42,55.93,32.43,2,32.43-18.49S431.21,167.77,413.33,157.44Z" transform="translate(-325.07 -79.16)"/><path class="cls-75" d="M413.33,228.24c-16.14-9.32-29.27-32-29.27-50.49s13.13-26,29.27-16.69,29.27,32,29.27,50.49S429.47,237.56,413.33,228.24Zm0-64.36c-14.78-8.54-26.81-1.68-26.81,15.29s12,37.71,26.81,46.25,26.82,1.68,26.82-15.29S428.12,172.42,413.33,163.88Z" transform="translate(-325.07 -79.16)"/><path class="cls-76" d="M413.33,241.11c-22.32-12.89-40.49-44.22-40.49-69.84,0-9.44,2.46-17.11,7.1-22.18.39-.42,1.15-.15,1.71.62s.7,1.72.32,2.14c-4.36,4.76-6.67,12-6.67,20.84,0,24.07,17.06,53.5,38,65.6a2.7,2.7,0,0,1,1.23,2.12C414.56,241.19,414,241.5,413.33,241.11Z" transform="translate(-325.07 -79.16)"/><path class="cls-77" d="M413.33,234.67c-19.23-11.1-34.88-38.09-34.88-60.16s15.65-31,34.88-19.88a2.7,2.7,0,0,1,1.23,2.11c0,.78-.55,1.09-1.23.7-17.88-10.32-32.42-2-32.42,18.49s14.54,45.6,32.42,55.93a2.7,2.7,0,0,1,1.23,2.11C414.56,234.75,414,235.07,413.33,234.67Z" transform="translate(-325.07 -79.16)"/><path class="cls-78" d="M413.33,228.24c-16.14-9.32-29.27-32-29.27-50.49s13.13-26,29.27-16.69c8.84,5.11,17.12,14.4,22.71,25.5.43.86.35,1.7-.18,1.88s-1.29-.34-1.72-1.2c-5.12-10.17-12.71-18.68-20.81-23.36-14.78-8.54-26.81-1.68-26.81,15.29s12,37.71,26.81,46.25a2.7,2.7,0,0,1,1.23,2.12C414.56,228.32,414,228.63,413.33,228.24Z" transform="translate(-325.07 -79.16)"/><path class="cls-79" d="M415.65,228.19c0,1.3-.91,1.82-2,1.17a4.54,4.54,0,0,1-2.05-3.53c0-1.3.92-1.82,2.05-1.17A4.49,4.49,0,0,1,415.65,228.19Z" transform="translate(-325.07 -79.16)"/><path class="cls-80" d="M415.65,234.62c0,1.3-.91,1.82-2,1.17a4.51,4.51,0,0,1-2.05-3.53c0-1.3.92-1.82,2.05-1.17A4.53,4.53,0,0,1,415.65,234.62Z" transform="translate(-325.07 -79.16)"/><path class="cls-81" d="M415.65,241.12c0,1.3-.91,1.82-2,1.17a4.51,4.51,0,0,1-2.05-3.53c0-1.3.92-1.82,2.05-1.17A4.53,4.53,0,0,1,415.65,241.12Z" transform="translate(-325.07 -79.16)"/><g class="cls-54"><path class="cls-5" d="M458.37,182.68c-7.89-4.56-14.29-.91-14.29,8.15v81.69c0,9.06,6.4,20.1,14.29,24.65L525,335.54c7.89,4.55,17.45.41,17.45-8.65v-81.7c0-9.05-9.56-19.59-17.45-24.15Z" transform="translate(-325.07 -79.16)"/><path class="cls-82" d="M458.19,182.94c-7.88-4.55-14.27-.91-14.27,8.13v81.1c0,9,6.39,20.06,14.27,24.61L524.6,335c7.88,4.55,17.15.46,17.15-8.59V245.33c0-9.05-9.27-19.61-17.15-24.16Z" transform="translate(-325.07 -79.16)"/><path class="cls-83" d="M458,183.19c-7.87-4.54-14.25-.9-14.25,8.13v80.49c0,9,6.38,20,14.25,24.59l66.17,38.09C532.07,339,541,335,541,326V245.46c0-9-9-19.63-16.85-24.17Z" transform="translate(-325.07 -79.16)"/><path class="cls-84" d="M457.85,183.45c-7.86-4.54-14.24-.91-14.24,8.12v79.88c0,9,6.38,20,14.24,24.56l65.94,38c7.86,4.54,16.54.54,16.54-8.48V245.6c0-9-8.68-19.65-16.54-24.19Z" transform="translate(-325.07 -79.16)"/><path class="cls-85" d="M457.68,183.7c-7.86-4.53-14.22-.9-14.22,8.11v79.28c0,9,6.36,20,14.22,24.53l65.7,37.82c7.85,4.54,16.23.59,16.23-8.42V245.73c0-9-8.38-19.67-16.23-24.2Z" transform="translate(-325.07 -79.16)"/><path class="cls-86" d="M457.5,184c-7.84-4.53-14.2-.9-14.2,8.1v78.68c0,9,6.36,20,14.2,24.49L523,332.92c7.85,4.53,15.93.63,15.93-8.37V245.87c0-9-8.08-19.69-15.93-24.22Z" transform="translate(-325.07 -79.16)"/><path class="cls-87" d="M457.33,184.22c-7.83-4.53-14.18-.91-14.18,8.08v78.08c0,9,6.35,19.94,14.18,24.46l65.24,37.55c7.83,4.53,15.62.68,15.62-8.31V246c0-9-7.79-19.71-15.62-24.23Z" transform="translate(-325.07 -79.16)"/><path class="cls-88" d="M457.16,184.47c-7.83-4.51-14.17-.9-14.17,8.08V270c0,9,6.34,19.92,14.17,24.44l65,37.41c7.82,4.52,15.31.72,15.31-8.26V246.14c0-9-7.49-19.74-15.31-24.25Z" transform="translate(-325.07 -79.16)"/><path class="cls-89" d="M457,184.73c-7.81-4.51-14.14-.9-14.14,8.06v76.88c0,9,6.33,19.89,14.14,24.4l64.77,37.28c7.82,4.51,15,.76,15-8.2V246.27c0-9-7.19-19.75-15-24.26Z" transform="translate(-325.07 -79.16)"/><path class="cls-90" d="M456.81,185c-7.8-4.5-14.13-.89-14.13,8.06v76.27c0,8.95,6.33,19.86,14.13,24.37l64.54,37.14c7.8,4.51,14.7.81,14.7-8.14V246.41c0-9-6.9-19.78-14.7-24.28Z" transform="translate(-325.07 -79.16)"/><path class="cls-91" d="M456.64,185.24c-7.79-4.5-14.11-.9-14.11,8V269c0,8.95,6.32,19.84,14.11,24.34l64.3,37c7.79,4.5,14.4.85,14.4-8.09V246.54c0-8.94-6.61-19.79-14.4-24.29Z" transform="translate(-325.07 -79.16)"/><path class="cls-26" d="M456.47,185.5c-7.79-4.5-14.1-.9-14.1,8V268.6c0,8.93,6.31,19.81,14.1,24.3l64.06,36.88c7.78,4.49,14.09.89,14.09-8V246.68c0-8.93-6.31-19.82-14.09-24.31Z" transform="translate(-325.07 -79.16)"/></g><path class="cls-92" d="M534.6,245.77c0-9-6.33-19.88-14.14-24.39l-64.39-37.06c-7.81-4.51-14.15-.9-14.15,8.06v19.08L534.6,264.8Z" transform="translate(-325.07 -79.16)"/><path class="cls-66" d="M456.07,299.85l64.39,37.06c7.81,4.51,14.14.9,14.14-8.06V264.8l-92.68-53.34v64C441.92,284.42,448.26,295.34,456.07,299.85Z" transform="translate(-325.07 -79.16)"/><path class="cls-93" d="M520.46,221.38l-64.39-37.06c-7.81-4.51-14.15-.9-14.15,8.06v1.37c0-9,6.34-12.57,14.15-8.06l64.39,37.06c7.81,4.51,14.14,15.43,14.14,24.39v-1.37C534.6,236.81,528.27,225.89,520.46,221.38Z" transform="translate(-325.07 -79.16)"/><ellipse class="cls-94" cx="136.41" cy="127.12" rx="16.18" ry="26.77"/><ellipse class="cls-95" cx="466.53" cy="225.68" rx="11.37" ry="19.7" transform="translate(-375.2 187.14) rotate(-30.31)"/><path class="cls-96" d="M466.53,209.65c7.71,4.46,14,15.24,14,24.1s-6.26,12.42-14,8Z" transform="translate(-325.07 -79.16)"/><path class="cls-49" d="M472.82,238.75a1.33,1.33,0,0,1-.67-.2l-11.73-6.77a2.35,2.35,0,0,1-1.09-1.89v-2.53c0-1.83,1.29-2.92,2.9-2.44a2.51,2.51,0,0,0,1.78,0,1.25,1.25,0,0,0-.2-.7,14,14,0,0,1-1.2-2.68,3.28,3.28,0,0,1-1-2,1.48,1.48,0,0,1,.63-1.35c.24-2.52,1.42-3.07,2.41-3.07a4.76,4.76,0,0,1,2.29.76,8,8,0,0,1,4.07,6.9,3,3,0,0,1,.6,1.78,1.24,1.24,0,0,1-1.19,1.28,3.68,3.68,0,0,1-1.24,1.21,1.91,1.91,0,0,0,.23.67,10.35,10.35,0,0,0,2.2,2.64A6.68,6.68,0,0,1,473.9,235v2.53a1.27,1.27,0,0,1-.26.81A1,1,0,0,1,472.82,238.75ZM461.46,226.1c-.75,0-.83.88-.83,1.26v2.53a1.09,1.09,0,0,0,.44.77l11.53,6.65V235a5.35,5.35,0,0,0-1.84-3.7,12.13,12.13,0,0,1-2.47-3,2.31,2.31,0,0,1-.32-1.69,1.18,1.18,0,0,1,.56-.77,2.44,2.44,0,0,0,.93-1.05l.23-.5.67.16a2,2,0,0,0-.43-1l-.2-.18V223a6.77,6.77,0,0,0-3.43-6.06,3.58,3.58,0,0,0-1.64-.59c-.26,0-1,0-1.15,2.31l0,.78-.55-.12s0,.09,0,.15a2.17,2.17,0,0,0,.7,1.17l.14.12.05.18a12.5,12.5,0,0,0,1.14,2.57,2.33,2.33,0,0,1,.31,1.75,1.19,1.19,0,0,1-.57.72,3.78,3.78,0,0,1-2.83.15A1.15,1.15,0,0,0,461.46,226.1Z" transform="translate(-325.07 -79.16)"/><polygon class="cls-97" points="198.95 219.51 127.14 177.97 127.14 160.96 198.95 202.5 198.95 219.51"/><polygon class="cls-27" points="128.95 177.28 128.95 162.01 127.14 160.96 127.14 177.97 198.95 219.51 198.95 217.78 128.95 177.28"/><polygon class="cls-97" points="198.95 242.55 127.14 201 127.14 183.99 198.95 225.54 198.95 242.55"/><polygon class="cls-27" points="128.95 200.32 128.95 185.04 127.14 183.99 127.14 201 198.95 242.55 198.95 240.81 128.95 200.32"/><path class="cls-75" d="M427.24,202.78a20,20,0,0,0-.18-2.53l3.38-.42c.49-.06.73-.6.56-1.33a38.74,38.74,0,0,0-1.18-3.91,2.47,2.47,0,0,0-1.4-1.52l-3.85-1.16a33.8,33.8,0,0,0-3-5.15l.92-3.89a2.44,2.44,0,0,0-.62-2,36.24,36.24,0,0,0-2.82-3c-.54-.52-1.13-.58-1.43-.2l-2.07,2.69a20,20,0,0,0-2.11-1.42,16.21,16.21,0,0,0-2.11-1l-2.08-5.08a2.37,2.37,0,0,0-1.43-1.46,13.28,13.28,0,0,0-2.82-.28c-.5,0-.75.54-.62,1.25l.93,5a6.51,6.51,0,0,0-3,1.7l-3.86-3.29c-.55-.47-1.14-.53-1.4-.1a12.25,12.25,0,0,0-1.17,2.56,2.36,2.36,0,0,0,.55,2l3.38,4.34a16.83,16.83,0,0,0-.17,2.31,21.62,21.62,0,0,0,.17,2.52l-3.38.43c-.48.06-.73.6-.55,1.33a36.25,36.25,0,0,0,1.17,3.91,2.5,2.5,0,0,0,1.4,1.52l3.86,1.16a33.45,33.45,0,0,0,3,5.15l-.93,3.89a2.48,2.48,0,0,0,.62,2,39.88,39.88,0,0,0,2.82,3c.55.52,1.14.58,1.43.2l2.08-2.69a20,20,0,0,0,2.11,1.42,16.21,16.21,0,0,0,2.11,1l2.07,5.08a2.42,2.42,0,0,0,1.43,1.46,13.34,13.34,0,0,0,2.82.28c.51,0,.75-.54.62-1.25l-.92-5a6.56,6.56,0,0,0,3-1.7l3.85,3.29c.56.47,1.14.53,1.4.1a12.8,12.8,0,0,0,1.18-2.56,2.37,2.37,0,0,0-.56-2l-3.38-4.34A15.35,15.35,0,0,0,427.24,202.78Zm-13.78-1.61a12.19,12.19,0,0,1-5.54-9.55c0-3.5,2.48-4.92,5.54-3.15A12.2,12.2,0,0,1,419,198C419,201.52,416.51,202.94,413.46,201.17Z" transform="translate(-325.07 -79.16)"/><g class="cls-54"><path class="cls-98" d="M399.58,258.56c-5.33-3.08-9.66-.62-9.66,5.51V278.2c0,6.12,4.33,13.58,9.66,16.66l35.18,20.49c5.34,3.08,11.8.28,11.8-5.84V295.37c0-6.12-6.46-13.24-11.8-16.32Z" transform="translate(-325.07 -79.16)"/><path class="cls-99" d="M399.3,259c-5.31-3.07-9.61-.61-9.61,5.48v13.46c0,6.09,4.3,13.51,9.61,16.57l34.86,20.31c5.31,3.07,11.55.31,11.55-5.78V295.57c0-6.09-6.24-13.21-11.55-16.27Z" transform="translate(-325.07 -79.16)"/><path class="cls-100" d="M399,259.42c-5.28-3.05-9.56-.61-9.56,5.45v12.78c0,6.06,4.28,13.45,9.56,16.5l34.54,20.12c5.29,3.05,11.32.33,11.32-5.73V295.77c0-6.07-6-13.18-11.32-16.23Z" transform="translate(-325.07 -79.16)"/><path class="cls-101" d="M398.72,259.85c-5.25-3-9.51-.61-9.51,5.43v12.1c0,6,4.26,13.38,9.51,16.41L433,313.73c5.26,3,11.07.36,11.07-5.67V296c0-6-5.81-13.13-11.07-16.17Z" transform="translate(-325.07 -79.16)"/><path class="cls-102" d="M398.44,260.28c-5.23-3-9.47-.6-9.47,5.4V277.1c0,6,4.24,13.32,9.47,16.34l33.91,19.75c5.23,3,10.83.39,10.83-5.61V296.16c0-6-5.6-13.1-10.83-16.12Z" transform="translate(-325.07 -79.16)"/><path class="cls-103" d="M398.15,260.71c-5.2-3-9.42-.6-9.42,5.37v10.75c0,6,4.22,13.24,9.42,16.25l33.59,19.58c5.21,3,10.59.41,10.59-5.56V296.36c0-6-5.38-13.07-10.59-16.07Z" transform="translate(-325.07 -79.16)"/><path class="cls-104" d="M397.86,261.14c-5.17-3-9.37-.6-9.37,5.35v10.06c0,5.94,4.2,13.18,9.37,16.17l33.28,19.4c5.18,3,10.35.44,10.35-5.5V296.55c0-5.94-5.17-13-10.35-16Z" transform="translate(-325.07 -79.16)"/><path class="cls-105" d="M397.58,261.57c-5.16-3-9.33-.59-9.33,5.32v9.39c0,5.91,4.17,13.11,9.33,16.09l32.95,19.21c5.16,3,10.11.47,10.11-5.45v-9.38c0-5.91-4.95-13-10.11-16Z" transform="translate(-325.07 -79.16)"/><path class="cls-106" d="M397.29,262c-5.13-3-9.28-.59-9.28,5.29V276c0,5.88,4.15,13.05,9.28,16l32.64,19c5.13,3,9.87.49,9.87-5.39V297c0-5.89-4.74-13-9.87-15.92Z" transform="translate(-325.07 -79.16)"/><path class="cls-107" d="M397,262.43c-5.1-2.94-9.23-.58-9.23,5.27v8c0,5.85,4.13,13,9.23,15.92l32.33,18.85c5.1,2.94,9.62.52,9.62-5.33v-8c0-5.85-4.52-12.92-9.62-15.86Z" transform="translate(-325.07 -79.16)"/><path class="cls-108" d="M396.72,262.86c-5.08-2.93-9.19-.58-9.19,5.24v7.35c0,5.82,4.11,12.92,9.19,15.85l32,18.66c5.08,2.93,9.39.55,9.39-5.27v-7.35c0-5.82-4.31-12.89-9.39-15.82Z" transform="translate(-325.07 -79.16)"/><path class="cls-26" d="M396.43,263.29c-5.05-2.91-9.14-.58-9.14,5.21v6.67c0,5.8,4.09,12.86,9.14,15.77l31.69,18.48c5.05,2.91,9.14.58,9.14-5.21v-6.67c0-5.8-4.09-12.86-9.14-15.77Z" transform="translate(-325.07 -79.16)"/></g><path class="cls-109" d="M434.24,314.92l-40.49-23.56c-4.37-2.52-7.94-9.34-7.94-15.16v-8.58c0-5.82,3.57-8.52,7.94-6l40.49,23.55c4.37,2.52,7.94,9.34,7.94,15.16v8.59C442.18,314.74,438.61,317.44,434.24,314.92Z" transform="translate(-325.07 -79.16)"/><path class="cls-110" d="M434.24,285.17l-40.49-23.55c-4.37-2.52-7.94.18-7.94,6v.89c0-5.82,3.57-8.52,7.94-6l40.49,23.55c4.37,2.52,7.94,9.34,7.94,15.16v-.89C442.18,294.51,438.61,287.69,434.24,285.17Z" transform="translate(-325.07 -79.16)"/><path class="cls-111" d="M434.24,285.17l-20.78-12.08v29.74l20.78,12.09c4.37,2.52,7.94-.18,7.94-6v-8.59C442.18,294.51,438.61,287.69,434.24,285.17Z" transform="translate(-325.07 -79.16)"/><path class="cls-27" d="M428.33,200.09l2.11-.26c.37-.05.59-.37.61-.83l-2.79.36C428.29,199.6,428.31,199.85,428.33,200.09Z" transform="translate(-325.07 -79.16)"/><path class="cls-27" d="M416.76,179.53l1.56-2a.67.67,0,0,0-.68.22l-1.2,1.56Z" transform="translate(-325.07 -79.16)"/><path class="cls-27" d="M422.78,211.37l.08.4a6.4,6.4,0,0,0,1.56-1.08A7,7,0,0,1,422.78,211.37Z" transform="translate(-325.07 -79.16)"/><path class="cls-27" d="M405.25,177a7.25,7.25,0,0,1,1.27-.49l-.92-5a1.88,1.88,0,0,1,0-.33l-.56,0c-.5,0-.75.54-.62,1.25Z" transform="translate(-325.07 -79.16)"/><path class="cls-27" d="M409,210.81a38.08,38.08,0,0,1-2.82-3,2.48,2.48,0,0,1-.62-2l.92-3.89a33.8,33.8,0,0,1-3-5.15l-3.85-1.16a2.47,2.47,0,0,1-1.4-1.52,38.74,38.74,0,0,1-1.18-3.91,1.8,1.8,0,0,1-.05-.5l-.59.07c-.48.06-.73.6-.55,1.33a38.66,38.66,0,0,0,1.17,3.91,2.5,2.5,0,0,0,1.4,1.52l3.86,1.16a33.45,33.45,0,0,0,3,5.15l-.93,3.89a2.48,2.48,0,0,0,.62,2,39.88,39.88,0,0,0,2.82,3c.55.52,1.14.58,1.43.2l.53-.68A1.47,1.47,0,0,1,409,210.81Z" transform="translate(-325.07 -79.16)"/><path class="cls-27" d="M420.27,217.29a2.39,2.39,0,0,1-1.43-1.46l-2.08-5.08a17.49,17.49,0,0,1-2.11-1,22.11,22.11,0,0,1-2.1-1.42l-.88,1.12a19.83,19.83,0,0,0,1.79,1.19,16.21,16.21,0,0,0,2.11,1l2.07,5.08a2.42,2.42,0,0,0,1.43,1.46,13.34,13.34,0,0,0,2.82.28c.42,0,.65-.39.64-.92A13,13,0,0,1,420.27,217.29Z" transform="translate(-325.07 -79.16)"/><path class="cls-27" d="M429.62,213l-3.85-3.29a6.47,6.47,0,0,1-1.18.92l3.83,3.27c.56.47,1.14.53,1.4.1.13-.22.25-.45.36-.68A1.7,1.7,0,0,1,429.62,213Z" transform="translate(-325.07 -79.16)"/><path class="cls-27" d="M399.85,184.55a16.83,16.83,0,0,0-.17,2.31c0,.59,0,1.19.1,1.79l1.27-.16a19.79,19.79,0,0,1-.18-2.52,15.38,15.38,0,0,1,.18-2.32l-3.38-4.34a2.37,2.37,0,0,1-.56-2,13.33,13.33,0,0,1,.82-1.88.67.67,0,0,0-.84.22,12.78,12.78,0,0,0-1.17,2.56,2.36,2.36,0,0,0,.55,2Z" transform="translate(-325.07 -79.16)"/><path class="cls-27" d="M403.69,178.05l-.17.11,0,0Z" transform="translate(-325.07 -79.16)"/><path class="cls-49" d="M484.3,320.64l-3.54,3.73c-.32.33,0,1.24.56,1.55L488.4,330c.55.32.88-.2.56-.91l-3.54-7.81C485.14,320.69,484.57,320.36,484.3,320.64Z" transform="translate(-325.07 -79.16)"/><path class="cls-112" d="M417.33,291.41c0,2.36-1.66,3.31-3.72,2.13a8.22,8.22,0,0,1-3.73-6.43c0-2.36,1.67-3.31,3.73-2.12A8.18,8.18,0,0,1,417.33,291.41Z" transform="translate(-325.07 -79.16)"/><path class="cls-113" d="M347.3,216.77,340.21,207v14l7.09-1.63C348.05,219.1,348.05,217.82,347.3,216.77Z" transform="translate(-325.07 -79.16)"/><path class="cls-114" d="M569.39,241.51l-4.72-2.73v-5.41a1.67,1.67,0,0,0-.75-1.3l-2.21-1.27V250l2.21,1.27c.41.24.75.05.75-.43v-5.41l4.72,2.72c.41.24.75.05.75-.43V242.8A1.67,1.67,0,0,0,569.39,241.51Z" transform="translate(-325.07 -79.16)"/><path class="cls-49" d="M479.59,366.31a5.66,5.66,0,0,1-2.28-.48.5.5,0,0,1-.25-.66.49.49,0,0,1,.65-.26,4.65,4.65,0,0,0,2.65.34.51.51,0,0,1,.58.41.49.49,0,0,1-.41.57A4.9,4.9,0,0,1,479.59,366.31Zm3.52-1.36a.5.5,0,0,1-.34-.87,4.72,4.72,0,0,0,1.39-2.28.5.5,0,0,1,1,.24,5.66,5.66,0,0,1-1.69,2.78A.46.46,0,0,1,483.11,365Zm-8.22-.54a.5.5,0,0,1-.24-.06L472,362.86a.49.49,0,0,1-.19-.68.51.51,0,0,1,.68-.19l2.61,1.49a.5.5,0,0,1-.25.93Zm-5.21-3a.45.45,0,0,1-.25-.07l-2.61-1.48a.5.5,0,1,1,.5-.87l2.6,1.48a.5.5,0,0,1,.19.68A.49.49,0,0,1,469.68,361.45Zm15.13-2a.5.5,0,0,1-.5-.5v-3a.5.5,0,0,1,.5-.5.51.51,0,0,1,.5.5v3A.51.51,0,0,1,484.81,359.44Zm-20.35-1a.57.57,0,0,1-.25-.06l-2.61-1.49a.49.49,0,0,1-.18-.68.5.5,0,0,1,.68-.19l2.61,1.49a.5.5,0,0,1-.25.93Zm-5.22-3a.42.42,0,0,1-.24-.07L456.39,354a.5.5,0,0,1,.49-.87l2.61,1.48a.51.51,0,0,1,.19.68A.49.49,0,0,1,459.24,355.52Zm25.57-2.09a.5.5,0,0,1-.5-.5v-3a.5.5,0,0,1,.5-.5.51.51,0,0,1,.5.5v3A.5.5,0,0,1,484.81,353.43ZM454,352.55a.54.54,0,0,1-.25-.06L451.17,351a.5.5,0,1,1,.5-.86l2.6,1.48a.5.5,0,0,1-.24.93Zm-5.22-3a.47.47,0,0,1-.25-.07L446,348a.49.49,0,0,1-.19-.68.49.49,0,0,1,.68-.19l2.61,1.48a.51.51,0,0,1,.19.68A.51.51,0,0,1,448.81,349.59Zm36-2.16a.5.5,0,0,1-.5-.5v-3a.5.5,0,0,1,.5-.5.51.51,0,0,1,.5.5v3A.5.5,0,0,1,484.81,347.43Zm-41.22-.81a.5.5,0,0,1-.24-.06l-2.61-1.48a.52.52,0,0,1-.19-.69.49.49,0,0,1,.68-.18l2.61,1.48a.49.49,0,0,1,.19.68A.5.5,0,0,1,443.59,346.62Zm-5.21-3a.45.45,0,0,1-.25-.07l-2.61-1.48a.5.5,0,1,1,.5-.87l2.61,1.48a.51.51,0,0,1,.18.69A.5.5,0,0,1,438.38,343.66Zm46.43-2.23a.5.5,0,0,1-.5-.5v-3a.5.5,0,0,1,.5-.5.51.51,0,0,1,.5.5v3A.5.5,0,0,1,484.81,341.43Zm-51.65-.74a.57.57,0,0,1-.25-.06l-2.6-1.48a.51.51,0,0,1-.19-.69.49.49,0,0,1,.68-.18l2.61,1.48a.51.51,0,0,1,.19.68A.52.52,0,0,1,433.16,340.69Zm-5.21-3a.45.45,0,0,1-.25-.07l-2.61-1.48a.51.51,0,0,1-.19-.68.5.5,0,0,1,.68-.19l2.61,1.48a.51.51,0,0,1,.19.69A.5.5,0,0,1,428,337.73Zm56.86-2.3a.5.5,0,0,1-.5-.5v-3a.5.5,0,0,1,.5-.5.51.51,0,0,1,.5.5v3A.5.5,0,0,1,484.81,335.43Zm-62.08-.67a.54.54,0,0,1-.25-.06l-1.31-.75c-.45-.25-.88-.53-1.3-.82a.5.5,0,0,1-.12-.7.51.51,0,0,1,.7-.12,13,13,0,0,0,1.21.77l1.32.75a.5.5,0,0,1-.25.93Zm-4.84-3.49a.52.52,0,0,1-.36-.16,15.7,15.7,0,0,1-1.91-2.44.51.51,0,0,1,.16-.69.49.49,0,0,1,.69.16,15.7,15.7,0,0,0,1.78,2.28.5.5,0,0,1,0,.71A.54.54,0,0,1,417.89,331.27Zm66.92-1.84a.5.5,0,0,1-.5-.5v-2.86a.5.5,0,0,1,.5-.5.5.5,0,0,1,.5.5v2.86A.5.5,0,0,1,484.81,329.43Zm-70.11-3.2a.51.51,0,0,1-.47-.32,16.06,16.06,0,0,1-.83-3,.48.48,0,0,1,.4-.57.5.5,0,0,1,.58.4,15,15,0,0,0,.78,2.79.51.51,0,0,1-.28.65A.57.57,0,0,1,414.7,326.23Zm-1-5.87a.5.5,0,0,1-.5-.5v-3a.5.5,0,0,1,.5-.5.5.5,0,0,1,.5.5v3A.5.5,0,0,1,413.66,320.36Zm0-6a.5.5,0,0,1-.5-.5v-3a.5.5,0,0,1,.5-.5.5.5,0,0,1,.5.5v3A.5.5,0,0,1,413.66,314.36Zm0-6a.5.5,0,0,1-.5-.5v-3a.5.5,0,0,1,.5-.5.5.5,0,0,1,.5.5v3A.5.5,0,0,1,413.66,308.36Zm0-6a.5.5,0,0,1-.5-.5v-3a.5.5,0,0,1,.5-.5.5.5,0,0,1,.5.5v3A.5.5,0,0,1,413.66,302.36Zm0-6a.5.5,0,0,1-.5-.5v-3a.5.5,0,0,1,.5-.5.5.5,0,0,1,.5.5v3A.5.5,0,0,1,413.66,296.36Z" transform="translate(-325.07 -79.16)"/></g></g></svg>